<svg xmlns="http://www.w3.org/2000/svg" width="503" height="270" viewBox="0 0 503 270">
  <g id="default_image" transform="translate(-1093 -657)">
    <rect id="oleg-didenko-xFhOYE1Xk6M-unsplash" width="503" height="270" transform="translate(1093 657)" fill="#e5e5e5"/>
    <g id="Group_87" data-name="Group 87" transform="translate(1303 732)">
      <path id="Path_1592" data-name="Path 1592" d="M164.3,57.392c-1.679,2.993,2.206,12.349,6.535,15.767,1.854,1.42,1.76,2.919-.088,4.323a46.926,46.926,0,0,0-10.773,15.934,76.768,76.768,0,0,0-2.65,14.015,49.556,49.556,0,0,1-6.7,22.713,11.247,11.247,0,0,0-2.207,4.588c0,.835,2.031,3.086,4.416,5.091,3.8,3.086,4.575,3.5,6.268,2.66,2.031-1.084,2.112-.918-3.353-6.757l-2.031-2.085,2.65-4.589a54.068,54.068,0,0,0,5.74-22.444c.883-11.179,2.815-15.934,9.889-23.861a47.384,47.384,0,0,0,4.768-6.424c.971-1.995.8-2.5-2.111-5.506-3.167-3.325-5.476-6.757-4.575-6.757a21.711,21.711,0,0,1,4.223,2.421,29.6,29.6,0,0,0,16.336,5.506c10.332,1.42,14.658,2.753,20.763,6.59a32.4,32.4,0,0,1,14.8,24.439,28.839,28.839,0,0,1-4.5,21.107,192.163,192.163,0,0,1-16.956,17.1c-16.6,15.351-20.06,20.189-20.841,29.283-.44,5.34-.44,5.34,1.943,5.34,2.111,0,2.295-.333,2.295-3.255,0-8.343,3.621-13.267,22.34-30.953,17.044-16.1,20.059-20.615,20.763-31.119,1.848-21.114-14.3-39.829-36.565-42.371-12.8-1.662-15.013-2.5-23.579-9.679C167.308,55.307,165.629,55.088,164.3,57.392Z" transform="translate(-148.42 -55.852)" fill="#fff" fill-rule="evenodd"/>
      <path id="Path_1593" data-name="Path 1593" d="M219.968,137.511c-.884,1-.531,1.995,1.76,5.506,3.871,5.59,4.5,11.013,1.76,14.351a28.015,28.015,0,0,1-7.859,5c-5.916,2.66-16.864,11.847-16.864,14.268,0,1.752,3.8,2.327,4.769.751a33.011,33.011,0,0,1,13.158-10.68c7.151-3.5,9.889-5.673,11.744-8.928,2.562-4.672.884-12.432-4.149-19.106C222.262,135.925,221.558,135.759,219.968,137.511Z" transform="translate(-175.826 -99.682)" fill="#fff" fill-rule="evenodd"/>
    </g>
  </g>
</svg>
