<svg xmlns="http://www.w3.org/2000/svg" xmlns:xlink="http://www.w3.org/1999/xlink" width="607.003" height="423.247" viewBox="0 0 607.003 423.247">
  <defs>
    <linearGradient id="linear-gradient" x1="0.5" y1="1" x2="0.5" gradientUnits="objectBoundingBox">
      <stop offset="0" stop-color="gray" stop-opacity="0.251"/>
      <stop offset="0.54" stop-color="gray" stop-opacity="0.122"/>
      <stop offset="1" stop-color="gray" stop-opacity="0.102"/>
    </linearGradient>
  </defs>
  <g id="finish_your_listing" transform="translate(0 0.005)">
    <path id="Path_26568" data-name="Path 26568" d="M388.736,123.588c-38.9-1.35-75.95-13.912-111.332-27.652S206.979,66.973,169,59.694c-24.418-4.686-52.35-5.347-72.028,7.747C78.039,80.04,71.922,101.79,68.63,121.974c-2.475,15.187-3.927,31.164,2.851,45.383,4.707,9.866,13.067,18.162,18.829,27.614,20.115,32.9,5.918,73.454-15.9,105.576-10.221,15.063-22.089,29.438-29.976,45.474s-11.523,34.414-4.589,50.8c6.843,16.214,23.133,28.394,40.816,36.964,35.85,17.371,78.129,22.353,119.353,25.171,91.261,6.24,183.011,3.54,274.514.834,33.86-1.006,67.875-2.017,101.186-7.257,18.5-2.905,37.6-7.532,51.032-18.662,17.048-14.143,21.277-38.093,9.85-55.83-19.162-29.75-72.147-37.12-85.537-69.064-7.376-17.57.2-37.147,10.915-53.442,22.982-34.968,61.506-65.632,63.534-105.6,1.4-27.436-17.123-54.937-45.759-67.924-30.019-13.611-71.636-11.9-93.784,10.636C463.159,115.852,423.085,124.777,388.736,123.588Z" transform="translate(-35.991 -56.63)" fill="#00a4b4" opacity="0.1"/>
    <path id="Path_26569" data-name="Path 26569" d="M931.032,737.849a16.578,16.578,0,0,0-6.773-.721,2.179,2.179,0,0,0,.4,4.336,20.008,20.008,0,0,0,4.121-.759Z" transform="translate(-445.441 -371.006)" fill="#00a4b4"/>
    <path id="Path_26570" data-name="Path 26570" d="M937.7,738.61a16.552,16.552,0,0,1,1.657,6.612c.091,2.8-4.158,3-4.352.2a20.24,20.24,0,0,1,.183-4.185Z" transform="translate(-451.269 -371.73)" fill="#00a4b4"/>
    <path id="Path_26571" data-name="Path 26571" d="M941.112,719.2s-1.361-4.271-9.683-2.615a3.41,3.41,0,0,0,.108,6.719h.161C937.19,724.065,939.1,721.886,941.112,719.2Z" transform="translate(-448.35 -361.375)" fill="#00a4b4"/>
    <path id="Path_26572" data-name="Path 26572" d="M951.06,721.3s4.471.35,4.75,8.823a3.411,3.411,0,0,1-6.563,1.431.464.464,0,0,0-.059-.156C947.213,726.228,948.9,723.871,951.06,721.3Z" transform="translate(-457.432 -363.732)" fill="#00a4b4"/>
    <path id="Path_26573" data-name="Path 26573" d="M954.189,695.034a8.893,8.893,0,0,0-6-6.7c-5.633-1.775-8.608,6.649-3.1,8.79a17.581,17.581,0,0,0,7.123,1.033Z" transform="translate(-454.589 -348.386)" fill="#00a4b4"/>
    <path id="Path_26574" data-name="Path 26574" d="M965.321,669.223a11.69,11.69,0,0,0-8.177-6.456c-6.257-1.146-8.15,8.252-1.969,9.753a20.631,20.631,0,0,0,8.425.07Z" transform="translate(-458.851 -336.643)" fill="#00a4b4"/>
    <path id="Path_26575" data-name="Path 26575" d="M973.251,643.942a13.352,13.352,0,0,0-8.607-5.918c-5.38-1.011-7.193,7.042-1.91,8.419a20.089,20.089,0,0,0,10.082-.14Z" transform="translate(-462.634 -325.215)" fill="#00a4b4"/>
    <path id="Path_26576" data-name="Path 26576" d="M980.985,618.669a13.885,13.885,0,0,0-7.531-5.988c-5.38-1.652-8.037,6.5-2.69,8.279a15.316,15.316,0,0,0,9.759-.038Z" transform="translate(-466.457 -313.445)" fill="#00a4b4"/>
    <path id="Path_26577" data-name="Path 26577" d="M983.884,593.9a18.682,18.682,0,0,0-6.536-7.714c-4.885-2.975-9.538,4.3-4.842,7.58a13.628,13.628,0,0,0,10.931,2.491Z" transform="translate(-467.71 -300.983)" fill="#00a4b4"/>
    <path id="Path_26578" data-name="Path 26578" d="M985.072,567.037s-2.372-5.094-6.924-7.531c-5.089-2.69-9.517,4.745-4.723,7.951,3.136,2.093,7.053,3.448,11.211,1.813Z" transform="translate(-468.085 -288.712)" fill="#00a4b4"/>
    <path id="Path_26579" data-name="Path 26579" d="M985.3,542.222a33,33,0,0,0-6.456-7.343c-3.561-2.91-8.07,2.329-4.7,5.439,3.115,2.857,6.994,5.256,11,5.062Z" transform="translate(-468.819 -277.206)" fill="#00a4b4"/>
    <path id="Path_26580" data-name="Path 26580" d="M982.717,516.672a48.36,48.36,0,0,0-7.295-9.425c-2.787-2.69-6.907,1.409-4.3,4.245,3.007,3.228,7.063,6.574,11.938,8.037Z" transform="translate(-467.587 -264.427)" fill="#00a4b4"/>
    <path id="Path_26581" data-name="Path 26581" d="M979.063,490.628a43.113,43.113,0,0,0-5.826-7.214c-2.808-2.749-7.042,1.388-4.347,4.245,2.862,3.039,6.563,5.885,10.9,6.854Z" transform="translate(-466.541 -253.403)" fill="#00a4b4"/>
    <path id="Path_26582" data-name="Path 26582" d="M975.739,465.153a68.765,68.765,0,0,0-5.6-6.655c-2.249-2.319-5.842.941-3.723,3.384,2.491,2.873,5.686,5.417,9.361,5.826Z" transform="translate(-465.499 -241.942)" fill="#00a4b4"/>
    <path id="Path_26583" data-name="Path 26583" d="M971.839,439a70.116,70.116,0,0,0-5.38-8.85,2.2,2.2,0,0,0-3.6,2.528c2.077,3.1,4.96,6.176,8.747,7.655Z" transform="translate(-463.965 -228.786)" fill="#00a4b4"/>
    <path id="Path_26584" data-name="Path 26584" d="M969.862,410.251s-1.329-2.254-3.228-4.874c-1.754-2.415-5.455.081-3.83,2.582,1.829,2.8,4.121,5.191,6.789,5.665Z" transform="translate(-463.942 -217.311)" fill="#00a4b4"/>
    <path id="Path_26585" data-name="Path 26585" d="M970.077,385.543l-1.684-8.419a1.771,1.771,0,0,0-3.5.538c.6,4.5,2.152,9.022,5.525,11.991Z" transform="translate(-465.087 -204.052)" fill="#00a4b4"/>
    <path id="Path_26586" data-name="Path 26586" d="M973.674,348.652h0a1.652,1.652,0,0,0-3.152.9,42.617,42.617,0,0,0,1.7,6.886Z" transform="translate(-467.684 -191.09)" fill="#00a4b4"/>
    <path id="Path_26587" data-name="Path 26587" d="M963.732,700.3a8.893,8.893,0,0,1,8.8,1.894c4.3,4.019-1.517,10.759-6.106,7.053A17.679,17.679,0,0,1,962,703.576Z" transform="translate(-463.756 -353.824)" fill="#00a4b4"/>
    <path id="Path_26588" data-name="Path 26588" d="M976.54,673.712a11.68,11.68,0,0,1,10.039,2.733c4.643,4.347-1.775,11.464-6.665,7.392a20.6,20.6,0,0,1-5.073-6.73Z" transform="translate(-469.689 -341.644)" fill="#00a4b4"/>
    <path id="Path_26589" data-name="Path 26589" d="M985.3,648.716a13.358,13.358,0,0,1,10.221-2.27c5.38,1.076,4.04,9.215-1.377,8.521a20.125,20.125,0,0,1-9.3-3.9Z" transform="translate(-474.314 -329.042)" fill="#00a4b4"/>
    <path id="Path_26590" data-name="Path 26590" d="M992.4,621.755a13.869,13.869,0,0,1,9.21-2.749c5.627.49,5.025,9.038-.608,8.683A15.284,15.284,0,0,1,991.96,624Z" transform="translate(-477.599 -316.455)" fill="#00a4b4"/>
    <path id="Path_26591" data-name="Path 26591" d="M995.2,595.909a18.735,18.735,0,0,1,7.752-6.488c5.288-2.093,8.683,5.832,3.545,8.269a13.636,13.636,0,0,1-11.249.619Z" transform="translate(-479.096 -302.639)" fill="#00a4b4"/>
    <path id="Path_26592" data-name="Path 26592" d="M995.55,567.693s3.018-4.734,7.844-6.542c5.38-2.017,8.817,5.945,3.647,8.5-3.384,1.668-7.445,2.5-11.351.334Z" transform="translate(-479.257 -289.588)" fill="#00a4b4"/>
    <path id="Path_26593" data-name="Path 26593" d="M993.67,540.462a32.986,32.986,0,0,1,4.734-8.554c2.851-3.61,8.4.538,5.751,4.3-2.432,3.459-5.681,6.628-9.683,7.3Z" transform="translate(-478.389 -275.585)" fill="#00a4b4"/>
    <path id="Path_26594" data-name="Path 26594" d="M992.9,514.636a48.165,48.165,0,0,1,4.368-11.114c1.931-3.346,7.026-.576,5.294,2.878-1.98,3.954-4.949,8.285-9.221,11.055Z" transform="translate(-478.033 -262.413)" fill="#00a4b4"/>
    <path id="Path_26595" data-name="Path 26595" d="M987.1,487.856a43.153,43.153,0,0,1,4.444-8.484c2.216-3.228,7.128-.065,5.1,3.271-2.206,3.637-5.315,7.295-9.484,9.145Z" transform="translate(-475.353 -251.331)" fill="#00a4b4"/>
    <path id="Path_26596" data-name="Path 26596" d="M982.48,462.776a69.137,69.137,0,0,1,2.329-8.376c1.076-3.05,5.708-1.576,4.793,1.528-1.076,3.647-2.921,7.289-6.09,9.188Z" transform="translate(-473.219 -239.641)" fill="#00a4b4"/>
    <path id="Path_26597" data-name="Path 26597" d="M979.27,437.309a69.867,69.867,0,0,1,3.228-9.85,2.2,2.2,0,0,1,4.089,1.641c-1.313,3.5-3.421,7.144-6.768,9.447Z" transform="translate(-471.736 -227.348)" fill="#00a4b4"/>
    <path id="Path_26598" data-name="Path 26598" d="M974.46,411.182s.506-2.566,1.426-5.67c.85-2.862,5.175-1.738,4.471,1.162-.785,3.228-2.152,6.267-4.519,7.6Z" transform="translate(-469.513 -217.059)" fill="#00a4b4"/>
    <path id="Path_26599" data-name="Path 26599" d="M974.762,384.995l2.927-8.07A1.771,1.771,0,0,1,981.062,378c-1.264,4.358-3.459,8.607-7.252,11.028Z" transform="translate(-469.213 -204.073)" fill="#00a4b4"/>
    <path id="Path_26600" data-name="Path 26600" d="M978.188,349.978s.457-.366,1.157-.941a1.451,1.451,0,0,1,1.942,2.152,27.437,27.437,0,0,1-7.957,5.046Z" transform="translate(-468.991 -191.571)" fill="#00a4b4"/>
    <path id="Path_26601" data-name="Path 26601" d="M981.487,332.116a105.949,105.949,0,0,1,5.837-10.394,1.076,1.076,0,0,0-1.743-1.232,31.2,31.2,0,0,0-4.691,10.872Z" transform="translate(-472.484 -178.384)" fill="#00a4b4"/>
    <path id="Path_26602" data-name="Path 26602" d="M974.567,383.895l.624-.065c-2.69-25.075-1.555-40.536,3.147-43.532L978,339.76C973.018,342.95,971.834,358.207,974.567,383.895Z" transform="translate(-468.9 -187.448)" fill="#00a4b4"/>
    <path id="Path_26603" data-name="Path 26603" d="M984.891,479.5l.931-.14c-.35-2.319-.753-4.675-1.2-6.994-3.917-20.351-6.961-39.164-8.484-53.452l-.683-.538c1.528,14.315,4.3,33.779,8.247,54.157C984.138,474.84,984.542,477.191,984.891,479.5Z" transform="translate(-469.971 -223.773)" fill="#00a4b4"/>
    <path id="Path_26604" data-name="Path 26604" d="M911.349,657.016c.14-.113,14.471-11.077,27.054-32.106a135.566,135.566,0,0,0,15.924-39.7c3.976-17.489,4.089-37.857,1.221-56.933l-.839.672c6.456,42.811-5.858,76.052-17.349,95.269-12.459,20.835-26.624,31.686-26.769,31.794Z" transform="translate(-440.003 -274.55)" fill="#444053"/>
    <ellipse id="Ellipse_84" data-name="Ellipse 84" cx="35.802" cy="6.886" rx="35.802" ry="6.886" transform="translate(68.575 368.597)" fill="#00a4b4"/>
    <ellipse id="Ellipse_85" data-name="Ellipse 85" cx="4.169" cy="5.455" rx="4.169" ry="5.455" transform="translate(99.605 367.101)" fill="#3f3d56"/>
    <ellipse id="Ellipse_86" data-name="Ellipse 86" cx="4.169" cy="5.455" rx="4.169" ry="5.455" transform="translate(99.605 360.43)" fill="#3f3d56"/>
    <ellipse id="Ellipse_87" data-name="Ellipse 87" cx="4.169" cy="5.455" rx="4.169" ry="5.455" transform="translate(99.605 353.765)" fill="#3f3d56"/>
    <ellipse id="Ellipse_88" data-name="Ellipse 88" cx="4.169" cy="5.455" rx="4.169" ry="5.455" transform="translate(99.605 347.094)" fill="#3f3d56"/>
    <ellipse id="Ellipse_89" data-name="Ellipse 89" cx="4.169" cy="5.455" rx="4.169" ry="5.455" transform="translate(99.605 340.423)" fill="#3f3d56"/>
    <ellipse id="Ellipse_90" data-name="Ellipse 90" cx="4.169" cy="5.455" rx="4.169" ry="5.455" transform="translate(99.605 333.758)" fill="#3f3d56"/>
    <ellipse id="Ellipse_91" data-name="Ellipse 91" cx="4.169" cy="5.455" rx="4.169" ry="5.455" transform="translate(99.605 327.087)" fill="#3f3d56"/>
    <path id="Path_26605" data-name="Path 26605" d="M227.087,562.172a19.636,19.636,0,0,0,1.555-2.286l-10.953-1.8,11.835.086a19.98,19.98,0,0,0,.382-15.816L214.014,550.6l14.654-10.759a19.969,19.969,0,1,0-32.977,22.342,20.171,20.171,0,0,0-2.276,3.642l14.218,7.386-15.149-5.089a19.975,19.975,0,0,0,3.228,18.748,19.969,19.969,0,1,0,31.385,0,19.953,19.953,0,0,0,0-24.687Z" transform="translate(-107.712 -275.271)" fill="#00a4b4"/>
    <path id="Path_26606" data-name="Path 26606" d="M191.455,612.637a19.9,19.9,0,0,0,4.271,12.341,19.969,19.969,0,1,0,31.385,0C229.791,621.583,191.455,610.393,191.455,612.637Z" transform="translate(-107.737 -313.39)" opacity="0.1"/>
    <path id="Path_26607" data-name="Path 26607" d="M267.81,317.87V555.5a8.3,8.3,0,0,0,8.3,8.3h341a8.3,8.3,0,0,0,8.3-8.3V317.87Z" transform="translate(-143.018 -177.334)" fill="#fff"/>
    <rect id="Rectangle_1068" data-name="Rectangle 1068" width="85.483" height="50.176" rx="8.65" transform="translate(153.089 161.807)" opacity="0.1"/>
    <rect id="Rectangle_1069" data-name="Rectangle 1069" width="85.483" height="50.176" rx="8.65" transform="translate(260.85 161.807)" opacity="0.1"/>
    <rect id="Rectangle_1070" data-name="Rectangle 1070" width="83.078" height="48.761" rx="8.65" transform="translate(154.289 162.512)" fill="#00a4b4"/>
    <rect id="Rectangle_1071" data-name="Rectangle 1071" width="83.078" height="48.761" rx="8.65" transform="translate(452.888 211.273) rotate(180)" fill="#444053" opacity="0.1"/>
    <rect id="Rectangle_1072" data-name="Rectangle 1072" width="83.078" height="48.761" rx="8.65" transform="translate(345.127 211.273) rotate(180)" fill="#00a4b4"/>
    <rect id="Rectangle_1073" data-name="Rectangle 1073" width="83.078" height="48.761" rx="8.65" transform="translate(154.289 232.948)" fill="#444053" opacity="0.1"/>
    <rect id="Rectangle_1074" data-name="Rectangle 1074" width="83.078" height="48.761" rx="8.65" transform="translate(452.888 281.709) rotate(180)" fill="#444053" opacity="0.1"/>
    <rect id="Rectangle_1075" data-name="Rectangle 1075" width="83.078" height="48.761" rx="8.65" transform="translate(345.127 281.709) rotate(180)" fill="#444053" opacity="0.1"/>
    <rect id="Rectangle_1076" data-name="Rectangle 1076" width="83.078" height="48.761" rx="8.65" transform="translate(154.289 303.384)" fill="#444053" opacity="0.1"/>
    <rect id="Rectangle_1077" data-name="Rectangle 1077" width="83.078" height="48.761" rx="8.65" transform="translate(452.888 352.151) rotate(180)" fill="#444053" opacity="0.1"/>
    <rect id="Rectangle_1078" data-name="Rectangle 1078" width="83.078" height="48.761" rx="8.65" transform="translate(345.127 352.151) rotate(180)" fill="#444053" opacity="0.1"/>
    <path id="Path_26608" data-name="Path 26608" d="M267.81,232.731V275.9H625.4V232.731a8.3,8.3,0,0,0-8.3-8.3h-341a8.3,8.3,0,0,0-8.3,8.3Zm88.5,12.771a6.622,6.622,0,1,1,6.622-6.622,6.622,6.622,0,0,1-6.622,6.622Zm180.6,0a6.635,6.635,0,1,0-.011,0Z" transform="translate(-143.018 -134.162)" fill="#00a4b4"/>
    <path id="Path_26609" data-name="Path 26609" d="M425.583,236.74a7.827,7.827,0,1,0,7.822,7.826,7.827,7.827,0,0,0-7.822-7.826Zm0,14.45a6.622,6.622,0,1,1,6.622-6.622,6.622,6.622,0,0,1-6.622,6.622Z" transform="translate(-212.295 -139.849)" opacity="0.1"/>
    <path id="Path_26610" data-name="Path 26610" d="M761.277,236.74a7.827,7.827,0,1,0,7.827,7.827A7.827,7.827,0,0,0,761.277,236.74Zm0,14.45a6.622,6.622,0,1,1,6.622-6.622,6.622,6.622,0,0,1-6.622,6.622Z" transform="translate(-367.399 -139.849)" opacity="0.1"/>
    <circle id="Ellipse_92" data-name="Ellipse 92" cx="8.215" cy="8.215" r="8.215" transform="translate(547.559 217.697)" fill="#00a4b4" opacity="0.1"/>
    <circle id="Ellipse_93" data-name="Ellipse 93" cx="13.772" cy="13.772" r="13.772" transform="translate(571.391 175.504)" fill="#00a4b4" opacity="0.1"/>
    <circle id="Ellipse_94" data-name="Ellipse 94" cx="13.772" cy="13.772" r="13.772" transform="translate(553.159 242.33)" fill="#00a4b4" opacity="0.1"/>
    <circle id="Ellipse_95" data-name="Ellipse 95" cx="19.501" cy="19.501" r="19.501" transform="translate(0 166.396)" fill="#00a4b4" opacity="0.1"/>
    <path id="Path_26611" data-name="Path 26611" d="M878.742,613.065a17.221,17.221,0,0,0-3.992-2.243.823.823,0,0,0-.35-.091,61.419,61.419,0,0,1-8.231-7.09c.538-.43,1.033-.85,1.56-1.264-3.228-1.539-5.019-5.062-6.762-8.242a81.31,81.31,0,0,0-17.936-22.347c-.178-.683-1.216-.538-1.77-.979a1.42,1.42,0,0,1-.393-1.372c.086-.495.312-.952.436-1.436a9.7,9.7,0,0,0-.091-3.5,4.283,4.283,0,0,1,.7-3.341c.247-.285.565-.506.807-.8a3.034,3.034,0,0,0,.538-2.415,8.573,8.573,0,0,0-.538-2.448q3.954-10.759,7.9-21.556c1.845-5.025,3.707-10.157,3.895-15.515a18.542,18.542,0,0,0-3.561-12.061c.473-.113.947-.231,1.415-.366-3.077-4.078-3.411-9.479-3.491-14.617q-.065-3.841-.264-7.688c.893.393,1.8.742,2.722,1.044l.861.264a29.671,29.671,0,0,0,4.266.915c.635.091,1.28.161,1.921.2h0q-1.388-3.475-2.771-6.961a9.512,9.512,0,0,1-.861-3.265h0v-.215a1.881,1.881,0,0,1,.027-.387,4.257,4.257,0,0,1,.21-.9,4.1,4.1,0,0,1,.167-.425,7.532,7.532,0,0,1,.689-1.21c.194-.3.409-.581.624-.872a11.893,11.893,0,0,0,1.931-3.126,5.918,5.918,0,0,0,.3-1.781,8.767,8.767,0,0,0-.161-1.829c-.075-.4-.172-.8-.28-1.189h0c-.07-.242-.145-.484-.221-.721l-.065-.194c-.059-.183-.118-.36-.183-.538l-.065-.183c-.07-.194-.14-.382-.215-.576l-.043-.113c-1.027-2.641-2.394-5.159-3.228-7.876a20.763,20.763,0,0,1-.538-2.2c-.038-.188-.065-.382-.1-.57s-.048-.323-.07-.484-.048-.377-.07-.565l-.048-.538c0-.172-.027-.344-.038-.538,0-.328-.032-.656-.038-.984v-1.5c0-.247.038-.495.059-.737a1.093,1.093,0,0,1,.038-.35q.054-.538.145-1.076h0c.054-.317.113-.64.178-.963a12.85,12.85,0,0,0,.3-2.69,2.67,2.67,0,0,0-.038-.538c-.038-.188-.043-.291-.07-.43a1.085,1.085,0,0,1,0-.129,1.429,1.429,0,0,0-.07-.29.542.542,0,0,0-.043-.134c-.016-.043-.059-.188-.091-.28s-.027-.081-.043-.124-.075-.194-.118-.285l-.038-.1c-.054-.118-.113-.231-.172-.344h0a7.924,7.924,0,0,0-.721-1.119h0c-1.77-2.324-4.713-4.094-6.332-6.655a14.817,14.817,0,0,1-1.813-5.38c-.081-.43-.151-.861-.226-1.286s-.14-.845-.215-1.264c-.048-.258-.1-.538-.151-.775l-.032-.167c-.043-.2-.086-.414-.134-.619l-.032-.145c-.048-.215-.1-.43-.151-.646l-.032-.113c-.054-.226-.113-.452-.172-.678a.451.451,0,0,1,0-.081c-.065-.237-.135-.473-.2-.71v-.048c-.075-.247-.151-.49-.231-.732h0c-.081-.247-.167-.5-.258-.748h0c-.1-.253-.188-.506-.29-.753h0a19.9,19.9,0,0,0-2.722-4.842c-2.464-3.163-6.273-5.433-10.221-5.283a20.248,20.248,0,0,0-6.149,1.56l-5.181,1.91,1.447-.667a12.379,12.379,0,0,0-4.406.941,4.279,4.279,0,0,0-2.555,3.5c-.027.888.323,1.77.21,2.652-.188,1.458-1.528,2.448-2.222,3.739a4.81,4.81,0,0,0-.538,2.528v.344a.482.482,0,0,0,0,.086v.172c-2.152-.936-4.3-1.91-6.456-2.953-3.556-1.748-7.155-3.8-9.371-7.117-.71-1.076-1.259-2.238-1.964-3.3a26.156,26.156,0,0,0-2.69-3.228l-6.6-7.144c-.506.952.145,2.077.656,3.023a12.984,12.984,0,0,1,1.221,3.152,1.5,1.5,0,0,1-.032,1.1,2.151,2.151,0,0,1-.9.64,3.228,3.228,0,0,0-1.361,3.7,4.088,4.088,0,0,0,3.05,2.658,5.535,5.535,0,0,1,1.361.333c.8.393,1.173,1.307,1.743,1.991,1.038,1.248,2.69,1.716,4.266,2.125,2.442,2.819,4.982,5.52,7.424,8.339,3.7,4.266,7.478,8.607,12.3,11.491.5.3,1.011.581,1.528.839a.844.844,0,0,1-.027.258,2.916,2.916,0,0,0,.231,1.883,2.958,2.958,0,0,0,2.109,1.027l3.647.651a12.437,12.437,0,0,1-.177,1.409c-.048.285-.108.565-.161.85h0l-.065.366v.054a1.067,1.067,0,0,1-.038.3c-.038.1,0,.07,0,.1v.716a6.855,6.855,0,0,0,2.028,3.707l.511.619a8.606,8.606,0,0,0-1.662,3.486,11.834,11.834,0,0,0-.237,2.426,4.212,4.212,0,0,0-1.076,1.678,7.671,7.671,0,0,0-.28,2.717v1.076a9.038,9.038,0,0,0,.624,3.766c.048.1.1.183.151.274-.807,1.582-2.152,2.814-3.115,4.3a9.339,9.339,0,0,0,.855,10.695c.737.85,1.684,1.668,1.77,2.8a10.5,10.5,0,0,1-.151,1.528,11.43,11.43,0,0,0,.775,3.545,3.663,3.663,0,0,1-.3,2.937,4.3,4.3,0,0,0-.737,2.819c.274,1.522-.355,3.045-.463,4.589-.048.662,0,1.334-.059,2a11.242,11.242,0,0,1-.393,1.872.766.766,0,0,1-.054.2c-1.329.586-2.647,1.194-3.916,1.9a3.437,3.437,0,0,0-1.614,1.485,3.809,3.809,0,0,0-.086,2.044l1.146,7.973-.2-.086q.135,1.958.28,3.932a5.3,5.3,0,0,0,.753,2.846,7.408,7.408,0,0,1,.812,1.038c.452.915-.086,1.98-.484,2.916s-.538,2.265.339,2.771a7.148,7.148,0,0,0,1.469.785c-1.076,4.487-.086,9.188.915,13.691q1.146,5.164,2.3,10.318a25.029,25.029,0,0,1,.506,4.433q0,.323,0,.646a24.827,24.827,0,0,0,1.076,6.036c1.194,4.024.048,8.855.425,13.239a39.274,39.274,0,0,0,1.259,6.235c2.6,10.307,4.917,20.41,5.81,31.008a7.79,7.79,0,0,0,3.723,2.6c-.108,1.3.038,2.792,0,3.551a6.133,6.133,0,0,1-.291,1.851,4.447,4.447,0,0,1-2.814,2.394c-.377.129-.758.231-1.146.323l.43-.366a9.608,9.608,0,0,0-7.16,1.259,2.835,2.835,0,0,0-1.415,1.668,2.69,2.69,0,0,0,.495,1.931,8.806,8.806,0,0,0,4.976,3.534,26.108,26.108,0,0,0,6.133.855l3.8.221a1.044,1.044,0,0,0,.248,1.35,2.658,2.658,0,0,0,1.393.506,17.752,17.752,0,0,0,4.686.07,1.835,1.835,0,0,0,1.076-.387.694.694,0,0,0,0-1.027,1.135,1.135,0,0,0,1.033-.753,3.056,3.056,0,0,0,.14-1.361c-.1-1.77-.258-4.341-1.178-5.918a1.5,1.5,0,0,0-1.662-.732,64.561,64.561,0,0,1-1.076-9.543,23.316,23.316,0,0,0,2.765-1.248c-2.641-4.266-2.69-9.683-1.883-14.643a44.346,44.346,0,0,0,.7-4.74c.178-3.174-.3-6.768-2.06-9.393a33.6,33.6,0,0,1,8.392,7.6c3.717,4.842,5.982,10.706,10.539,14.74q.9-.877,1.818-1.743,1.442,2.442,2.728,4.987a18.969,18.969,0,0,1,1.582,3.933,18.189,18.189,0,0,1,.145,6.343q-.188,1.678-.457,3.341a9.1,9.1,0,0,1-.328,1.4.968.968,0,0,0-.1-.42c-.285-.5-1.076-.274-1.506.07a6.649,6.649,0,0,0-1.856,2.152,2.318,2.318,0,0,0-.334,1.372,2.028,2.028,0,0,0,1.076,1.345c2,1.167,4.5.323,6.644-.538a7.8,7.8,0,0,0,1.678-.845c1.076-.775,1.662-2.05,2.733-2.8a15.824,15.824,0,0,0,1.652-1.044c1-.909,1.076-2.442,1.8-3.594,1.205-1.985,3.9-2.5,4.955-4.6C882.008,617.514,880.582,614.582,878.742,613.065Z" transform="translate(-380.773 -214.772)" fill="url(#linear-gradient)"/>
    <path id="Path_26612" data-name="Path 26612" d="M867.752,809.472a6,6,0,0,1-.3,1.829,4.423,4.423,0,0,1-2.808,2.362c-1.194.414-2.464.538-3.68.9a3.229,3.229,0,0,0-1.436.742c-1.076,1.076-.43,3.013.828,3.814a7.145,7.145,0,0,0,4.358.672,57.4,57.4,0,0,0,9.425-1.34c1.119-.264,2.426-.78,2.6-1.915a3.141,3.141,0,0,0-.086-1.076,63.594,63.594,0,0,1-1.21-11.69c0-.258-6.24-.425-6.821-.048C867.327,804.576,867.822,808.148,867.752,809.472Z" transform="translate(-416.161 -401.711)" fill="#a1616a"/>
    <path id="Path_26613" data-name="Path 26613" d="M925.974,784.413q1.549,2.566,2.91,5.234a18.531,18.531,0,0,1,1.582,3.879,17.826,17.826,0,0,1,.145,6.257q-.188,1.652-.463,3.3A4.165,4.165,0,0,1,928.766,806a3.185,3.185,0,0,0,2.744.242,7.9,7.9,0,0,0,2.415-1.479c4.61-3.8,8.07-9.328,8.242-15.305a2.426,2.426,0,0,0-.253-1.356,2.689,2.689,0,0,0-.807-.721,61.992,61.992,0,0,1-9.538-8.01,1.167,1.167,0,0,0-.7-.447,1.21,1.21,0,0,0-.624.177c-1.77.888-4.729,2.152-5.466,4.169a2.817,2.817,0,0,1,1.194,1.146Z" transform="translate(-446.559 -390.354)" fill="#a1616a"/>
    <path id="Path_26614" data-name="Path 26614" d="M870.985,824.227c-3.873,1.614-8.07,2.195-12.26,2.749a1.676,1.676,0,0,1-1.469-.269,1.119,1.119,0,0,1-.1-1.259,3.282,3.282,0,0,1,.9-.99l2.781-2.329a9.684,9.684,0,0,0-7.069,1.216,2.814,2.814,0,0,0-1.409,1.614,2.625,2.625,0,0,0,.495,1.91,8.79,8.79,0,0,0,4.971,3.486,26.58,26.58,0,0,0,6.128.845l3.766.215a1.017,1.017,0,0,0,.253,1.334,2.69,2.69,0,0,0,1.4.511,17.931,17.931,0,0,0,4.68.065,1.792,1.792,0,0,0,1.076-.382.678.678,0,0,0,0-1.011,1.135,1.135,0,0,0,1.033-.748,3.114,3.114,0,0,0,.14-1.34c-.1-1.743-.258-4.3-1.178-5.826S872.287,823.689,870.985,824.227Z" transform="translate(-413.089 -410.221)" fill="#3f3d56"/>
    <path id="Path_26615" data-name="Path 26615" d="M945.488,795.637a17.309,17.309,0,0,0-3.992-2.211.473.473,0,0,0-.721.183,40.958,40.958,0,0,0-5.88,11.335c-.769,2.313-1.377,4.777-2.937,6.649-.2.247-.538.5-.818.355-.4-.2-.156-.855-.382-1.248-.28-.495-1.044-.269-1.5.07a6.457,6.457,0,0,0-1.851,2.152,2.152,2.152,0,0,0-.333,1.35,1.99,1.99,0,0,0,1.049,1.323c2,1.157,4.5.323,6.638-.538a7.593,7.593,0,0,0,1.673-.834c1.076-.758,1.662-2.023,2.733-2.76a15.743,15.743,0,0,0,1.652-1.033c.99-.9,1.076-2.41,1.8-3.551,1.205-1.953,3.9-2.458,4.955-4.535C948.748,800.027,947.328,797.132,945.488,795.637Z" transform="translate(-447.615 -397.011)" fill="#3f3d56"/>
    <path id="Path_26616" data-name="Path 26616" d="M875.08,595.508c4.228,3.174,6,8.817,5.815,14.1s-2.044,10.35-3.884,15.305q-3.954,10.636-7.9,21.266a8.769,8.769,0,0,1,.538,2.421,2.975,2.975,0,0,1-.538,2.378c-.248.285-.538.506-.807.785a4.213,4.213,0,0,0-.7,3.3,9.549,9.549,0,0,1,.091,3.448c-.124.479-.35.931-.436,1.415a1.4,1.4,0,0,0,.393,1.356c.538.43,1.614.29,1.77.968A80.4,80.4,0,0,1,887.34,684.3c1.743,3.136,3.5,6.612,6.757,8.129a117.975,117.975,0,0,0-9.108,8.01c-4.546-3.981-6.811-9.775-10.523-14.525a33.355,33.355,0,0,0-8.381-7.494c1.759,2.588,2.238,6.138,2.06,9.264a43,43,0,0,1-.7,4.675c-.834,4.9-.758,10.221,1.883,14.45-2.819,1.463-6.057,2.55-9.2,2.114a7.832,7.832,0,0,1-5.014-2.862c-.893-10.458-3.228-20.443-5.8-30.594a37.6,37.6,0,0,1-1.254-6.192c-.377-4.3.769-9.092-.43-13.062a24.353,24.353,0,0,1-1.076-5.95c0-.215,0-.425,0-.64a24.384,24.384,0,0,0-.506-4.368l-2.292-10.178c-1-4.449-2-9.086-.92-13.514a7.178,7.178,0,0,1-1.463-.769c-.877-.5-.737-1.807-.339-2.733s.931-1.974.484-2.878a7.032,7.032,0,0,0-.812-1.027,5.17,5.17,0,0,1-.753-2.8l-.28-3.884a7.6,7.6,0,0,1,3.83,3.352c-2.12-3.282-1.076-7.962.49-11.545a5.261,5.261,0,0,1,4.938-3.911C857.542,593.894,868.075,590.241,875.08,595.508Z" transform="translate(-407.231 -304.341)" fill="#3f3d56"/>
    <path id="Path_26617" data-name="Path 26617" d="M893.356,638.93s-4.239,2.83-4.239,4.949-1.076,21.2-1.076,21.2v13.449s.7,7.069,0,8.833,0,9.893,0,10.953,1.076-10.953,1.076-10.953V674.619l1.076-28.975Z" transform="translate(-429.44 -325.674)" opacity="0.1"/>
    <path id="Path_26618" data-name="Path 26618" d="M821.065,432.82l-2.469-.963c-5.046-2.023-10.1-4.051-14.982-6.423-3.551-1.727-7.15-3.766-9.361-7.02-.71-1.076-1.259-2.206-1.964-3.265a26.046,26.046,0,0,0-2.69-3.19L783,404.91c-.506.941.14,2.05.656,2.98a12.914,12.914,0,0,1,1.221,3.115,1.442,1.442,0,0,1-.038,1.076,2.093,2.093,0,0,1-.9.635,3.158,3.158,0,0,0-1.361,3.642,4.062,4.062,0,0,0,3.045,2.625,5.786,5.786,0,0,1,1.361.328c.8.393,1.173,1.291,1.743,1.964a7.828,7.828,0,0,0,4.261,2.1c2.442,2.781,4.976,5.444,7.419,8.226,3.69,4.207,7.467,8.489,12.287,11.34a18,18,0,0,0,5.547,2.227,89.883,89.883,0,0,1,2.819-12.346Z" transform="translate(-380.793 -217.549)" fill="#a1616a"/>
    <path id="Path_26619" data-name="Path 26619" d="M821.065,432.82l-2.469-.963c-5.046-2.023-10.1-4.051-14.982-6.423-3.551-1.727-7.15-3.766-9.361-7.02-.71-1.076-1.259-2.206-1.964-3.265a26.046,26.046,0,0,0-2.69-3.19L783,404.91c-.506.941.14,2.05.656,2.98a12.914,12.914,0,0,1,1.221,3.115,1.442,1.442,0,0,1-.038,1.076,2.093,2.093,0,0,1-.9.635,3.158,3.158,0,0,0-1.361,3.642,4.062,4.062,0,0,0,3.045,2.625,5.786,5.786,0,0,1,1.361.328c.8.393,1.173,1.291,1.743,1.964a7.828,7.828,0,0,0,4.261,2.1c2.442,2.781,4.976,5.444,7.419,8.226,3.69,4.207,7.467,8.489,12.287,11.34a18,18,0,0,0,5.547,2.227,89.883,89.883,0,0,1,2.819-12.346Z" transform="translate(-380.793 -217.549)" opacity="0.15"/>
    <path id="Path_26620" data-name="Path 26620" d="M843.776,470.226a2.963,2.963,0,0,1-2.109-1.011,2.835,2.835,0,0,1-.231-1.856,52.045,52.045,0,0,1,2.69-11.889c1.2,2.222,3.561,3.518,5.8,4.686a43.044,43.044,0,0,0,6.23,2.84c-.538-.172-1.856,8.1-2.6,8.607-.936.656-3.2-.231-4.234-.409Z" transform="translate(-408.022 -240.91)" fill="#fa5a60"/>
    <circle id="Ellipse_96" data-name="Ellipse 96" cx="11.308" cy="11.308" r="11.308" transform="translate(430.175 204.258)" fill="#a1616a"/>
    <path id="Path_26621" data-name="Path 26621" d="M852.22,468.022s7.419,6.359,4.239,10.6-4.949,7.069-.71,7.424,18.372-7.069,18.372-7.069-13.073-10.6-10.953-16.957S852.22,468.022,852.22,468.022Z" transform="translate(-413.034 -243.095)" fill="#fbbebe"/>
    <path id="Path_26622" data-name="Path 26622" d="M855.369,486.409a8.774,8.774,0,0,0-6.493,6.531c-.834,3.809.936,8.07-.732,11.577-.785,1.668-2.243,2.916-3.228,4.481a9.146,9.146,0,0,0,.85,10.549c.737.839,1.684,1.652,1.77,2.76a10.13,10.13,0,0,1-.151,1.506,11.176,11.176,0,0,0,.775,3.5,3.564,3.564,0,0,1-.3,2.894,4.19,4.19,0,0,0-.732,2.781c.269,1.506-.36,3.007-.468,4.53-.048.656,0,1.313-.059,1.969a11.479,11.479,0,0,1-.387,1.845l-.947,3.491a38.806,38.806,0,0,0,16.139,2.883,79.108,79.108,0,0,0,14.735-2.152c1.479-.312,2.959-.624,4.417-1.028-3.077-4.024-3.405-9.355-3.491-14.417a215.221,215.221,0,0,0-1.888-25.231,32.444,32.444,0,0,0,2.765-9.076,15.345,15.345,0,0,0,.344-3.836c-.151-2.69-1.388-5.245-2.6-7.682-1.108-2.227-2.308-4.573-4.777-5.536a3.8,3.8,0,0,0-3.674.4c-1.867,1.409-1.313,3.841-1.791,5.918-.629,2.69-3.109,4.621-5.751,5.38a18.692,18.692,0,0,1-6.047.565,1.076,1.076,0,0,1-.764-1.765C853.755,488.3,854.626,487.324,855.369,486.409Z" transform="translate(-409.066 -251.53)" fill="#fa5a60"/>
    <path id="Path_26623" data-name="Path 26623" d="M861.408,574.49c-4.185,3.422-8.419,6.875-13.25,9.3-2.835,1.42-5.848,2.469-8.607,4a3.437,3.437,0,0,0-1.614,1.463,3.615,3.615,0,0,0-.086,2.017l1.227,8.457c.339,2.292,2.539,3.766,4.3,5.229a3.1,3.1,0,0,1,.113-2.05,6.87,6.87,0,0,1,.414-.619,5.8,5.8,0,0,0,.6-3.976,22.085,22.085,0,0,1-.468-4.078,1.334,1.334,0,0,1,.57-1.184c6.009-2.889,12.481-5.105,18.555-7.849a19.657,19.657,0,0,0,4.5-2.555,6.929,6.929,0,0,0,2.615-4.341.85.85,0,0,0-.108-.662.9.9,0,0,0-.457-.269C866.992,576.378,864.12,575.469,861.408,574.49Z" transform="translate(-406.347 -295.901)" fill="#a1616a"/>
    <path id="Path_26624" data-name="Path 26624" d="M855.6,508.505c-2.077.35-4.261,1.426-4.965,3.416a7.59,7.59,0,0,0-.28,2.69,8.747,8.747,0,0,0,.629,3.728,10.525,10.525,0,0,0,1.259,1.829c4.971,6.37,7.467,14.369,12.309,20.841.43.57,1.216,1.313.974,1.985a4.787,4.787,0,0,0-.231.538,1.076,1.076,0,0,0,.355.941,2.3,2.3,0,0,1,.586.855c.091.339-.135.78-.484.753.581,1.8,2.362,2.846,4.051,3.7,2.808,1.415,5.918,2.528,9.043,2.222.586-2.351,1.4-5.008,1.076-7.4a19.216,19.216,0,0,0-1.8-5.25l-2.1-4.594a68.41,68.41,0,0,0-6.1-11.383,17.217,17.217,0,0,1-2.254-3.631c-.64-1.662-2.4-2.83-3.464-4.255a26.365,26.365,0,0,0-5.347-5.858A4.831,4.831,0,0,0,855.6,508.505Z" transform="translate(-412.161 -265.401)" opacity="0.1"/>
    <path id="Path_26625" data-name="Path 26625" d="M855.6,506.535c-2.077.35-4.261,1.426-4.965,3.411a7.635,7.635,0,0,0-.28,2.69,8.747,8.747,0,0,0,.629,3.728,10.525,10.525,0,0,0,1.259,1.829c4.971,6.37,7.467,14.369,12.309,20.841.43.57,1.216,1.313.974,1.985a4.817,4.817,0,0,0-.231.538,1.076,1.076,0,0,0,.355.941,2.3,2.3,0,0,1,.586.855c.091.339-.135.78-.484.753.581,1.8,2.362,2.846,4.051,3.7,2.808,1.415,5.918,2.528,9.043,2.222.586-2.351,1.4-5.008,1.076-7.4a19.219,19.219,0,0,0-1.8-5.251l-2.1-4.594a68.407,68.407,0,0,0-6.1-11.383,17.126,17.126,0,0,1-2.254-3.637c-.64-1.657-2.4-2.824-3.465-4.25a26.367,26.367,0,0,0-5.347-5.859A4.853,4.853,0,0,0,855.6,506.535Z" transform="translate(-412.161 -264.49)" fill="#fa5a60"/>
    <path id="Path_26626" data-name="Path 26626" d="M843.141,420.409a12.451,12.451,0,0,0-4.4.925,4.234,4.234,0,0,0-2.555,3.454,20.541,20.541,0,0,1,.21,2.615c-.188,1.442-1.528,2.415-2.216,3.69-1.205,2.216-.269,5.035,1.291,6.994s3.674,3.465,5.277,5.412a13.987,13.987,0,0,1,2.916,11.254,8.93,8.93,0,0,0-.285,2.351,6.755,6.755,0,0,0,2.023,3.653,168.735,168.735,0,0,1,12.761,16.978,45.878,45.878,0,0,1,3.142,5.38,32.625,32.625,0,0,0,2.883,5.686,15.016,15.016,0,0,0,4.234,3.631,29.9,29.9,0,0,0,13.557,4.374l-2.771-6.87a7.888,7.888,0,0,1-.834-3.814c.307-2.475,2.8-4.1,3.615-6.456a7.83,7.83,0,0,0-.145-4.734c-.979-3.481-2.937-6.612-3.992-10.071a20.443,20.443,0,0,1-.6-9.366,14.465,14.465,0,0,0,.436-4.142c-.511-4.207-5.444-6.219-7.725-9.786-1.474-2.292-1.759-5.116-2.254-7.8a24.6,24.6,0,0,0-4.454-10.937c-2.464-3.12-6.262-5.38-10.221-5.213a20.659,20.659,0,0,0-6.144,1.539l-5.186,1.888" transform="translate(-404.445 -223.419)" fill="#3f3d56"/>
    <g id="Group_1841" data-name="Group 1841" transform="translate(429.2 204.205)" opacity="0.1">
      <path id="Path_26627" data-name="Path 26627" d="M894.068,437.791c.446,2.415.726,4.949,1.856,7.107-.156-.839-.285-1.684-.441-2.512a31.33,31.33,0,0,0-1.732-6.165C893.885,436.742,893.976,437.264,894.068,437.791Z" transform="translate(-861.422 -436.22)"/>
      <path id="Path_26628" data-name="Path 26628" d="M911.836,477.136a20.544,20.544,0,0,0,.6,9.371,24.2,24.2,0,0,0,.882,2.421,20.479,20.479,0,0,1-.07-7.2,14.468,14.468,0,0,0,.436-4.142,6.456,6.456,0,0,0-1.4-3.228C912.208,475.3,911.992,476.216,911.836,477.136Z" transform="translate(-869.648 -453.842)"/>
      <path id="Path_26629" data-name="Path 26629" d="M919.019,521.64a25.97,25.97,0,0,0-1.076-2.97,6.6,6.6,0,0,1-.2,3.109c-.812,2.351-3.314,3.981-3.615,6.456a7.826,7.826,0,0,0,.834,3.814c.183.457.366.92.538,1.377a4.431,4.431,0,0,1,0-.6c.307-2.475,2.8-4.1,3.615-6.456A7.508,7.508,0,0,0,919.019,521.64Z" transform="translate(-870.821 -474.315)"/>
      <path id="Path_26630" data-name="Path 26630" d="M875.375,520.472a15.061,15.061,0,0,1-4.234-3.637,32.45,32.45,0,0,1-2.889-5.686,45.374,45.374,0,0,0-3.142-5.38,168.97,168.97,0,0,0-12.755-16.984c-.167-.188-.328-.382-.49-.576a5.531,5.531,0,0,0-.124,1.517,6.754,6.754,0,0,0,2.023,3.653,168.755,168.755,0,0,1,12.76,16.978,45.864,45.864,0,0,1,3.142,5.38,32.616,32.616,0,0,0,2.883,5.686,15.017,15.017,0,0,0,4.234,3.631,29.9,29.9,0,0,0,13.557,4.374l-1.883-4.627A29.932,29.932,0,0,1,875.375,520.472Z" transform="translate(-842.009 -460.241)"/>
      <path id="Path_26631" data-name="Path 26631" d="M839.345,452.1c-1.614-1.947-3.717-3.427-5.277-5.407-.14-.183-.274-.371-.409-.57a7.833,7.833,0,0,0,1.824,5.159c1.56,1.985,3.674,3.465,5.277,5.412a13.447,13.447,0,0,1,1.614,2.453,13.986,13.986,0,0,0-3.029-7.047Z" transform="translate(-833.658 -440.794)"/>
    </g>
    <path id="Path_26632" data-name="Path 26632" d="M411.653,350.685l-3.9-3.922a2.071,2.071,0,0,0-2.943,0l-24.494,24.268-10.361-10.437a2.066,2.066,0,0,0-2.921,0l-3.943,3.9a2.093,2.093,0,0,0,0,2.943l15.736,15.854a2.087,2.087,0,0,0,2.937,0l29.889-29.664a2.071,2.071,0,0,0,0-2.943Z" transform="translate(-186.761 -190.4)" fill="#3acc6c"/>
    <path id="Path_26633" data-name="Path 26633" d="M612.653,350.685l-3.9-3.922a2.071,2.071,0,0,0-2.943,0l-24.494,24.268-10.361-10.437a2.066,2.066,0,0,0-2.921,0l-3.943,3.9a2.093,2.093,0,0,0,0,2.943l15.736,15.854a2.087,2.087,0,0,0,2.937,0l29.889-29.664a2.071,2.071,0,0,0,0-2.943Z" transform="translate(-279.63 -190.4)" fill="#3acc6c"/>
  </g>
</svg>
