<svg xmlns="http://www.w3.org/2000/svg" width="46.994" height="47" viewBox="0 0 46.994 47">
  <g id="Key" transform="translate(0)">
    <path id="Path_40488" data-name="Path 40488" d="M37.907,33H19.172A3.676,3.676,0,0,0,15.5,36.672v6.055a13.04,13.04,0,1,0,26.079,0V36.672A3.676,3.676,0,0,0,37.907,33ZM30.334,48.3a.529.529,0,0,1-.527.582H27.271a.529.529,0,0,1-.527-.582l.467-4.665a2.119,2.119,0,1,1,2.658,0Z" transform="translate(-4.118 -8.767)" fill="#00a4b4"/>
    <path id="Path_40489" data-name="Path 40489" d="M54.208,17.92a9.23,9.23,0,0,0-7.163-2.385,9.521,9.521,0,0,0-8.421,9.529v1.815H43.03V24.812a4.92,4.92,0,0,1,5.56-4.869,5.026,5.026,0,0,1,4.259,5.067v2.6a2.2,2.2,0,0,0,4.406,0v-2.8a9.338,9.338,0,0,0-3.048-6.892Z" transform="translate(-10.261 -4.115)" fill="#00a4b4"/>
    <path id="Path_40490" data-name="Path 40490" d="M7.7,34.289a3.017,3.017,0,1,0,4.267,0,3.017,3.017,0,0,0-4.267,0Z" transform="translate(-1.811 -8.875)" fill="none"/>
    <path id="Path_40491" data-name="Path 40491" d="M29.374,2,13.062,18.313a.734.734,0,0,1-.712.189,8.245,8.245,0,0,0-8.113,2.246,8.341,8.341,0,0,0-.1,11.287A8.231,8.231,0,0,0,18.128,24.28a.734.734,0,0,1,.189-.712l3.349-3.349-.141-2.79a.734.734,0,0,1,.77-.771l2.79.141,2.037-2.036-.141-2.79a.734.734,0,0,1,.77-.771l2.79.142.4-.4L30.8,8.152a.734.734,0,0,1,.77-.771l2.79.142.3-.3V2H29.376ZM11.723,31.252a4.486,4.486,0,1,1,0-6.345,4.486,4.486,0,0,1,0,6.345Zm18.2-25.639a.734.734,0,0,1,0,1.038L16.5,20.073a.734.734,0,0,1-1.038-1.036L28.886,5.613a.734.734,0,0,1,1.039,0Z" transform="translate(-0.529 -0.531)" fill="none"/>
    <g id="Group_3118" data-name="Group 3118">
      <path id="Path_40492" data-name="Path 40492" d="M6.13,32.72a4.486,4.486,0,1,0,6.344,0A4.486,4.486,0,0,0,6.13,32.72Zm5.306,5.306a3.017,3.017,0,1,1,0-4.268,3.017,3.017,0,0,1,0,4.268Z" transform="translate(-1.279 -8.344)" fill="#343a40"/>
      <path id="Path_40493" data-name="Path 40493" d="M34.133,0H28.846a1.459,1.459,0,0,0-1.039.43L11.788,16.449A9.708,9.708,0,0,0,2.649,19.2a9.828,9.828,0,0,0-.115,13.3,9.7,9.7,0,0,0,16.587-8.718L22.407,20.5a.734.734,0,0,0,.214-.557l-.117-2.3,2.3.117a.711.711,0,0,0,.557-.214l2.5-2.5a.734.734,0,0,0,.214-.556l-.117-2.3,2.3.117a.734.734,0,0,0,.557-.214l.861-.862a.729.729,0,0,0,.214-.556l-.117-2.3,2.3.117a.742.742,0,0,0,.557-.215l.531-.532a1.458,1.458,0,0,0,.43-1.038V1.469A1.469,1.469,0,0,0,34.133,0Zm0,6.692-.3.3-2.79-.142a.734.734,0,0,0-.77.771l.141,2.79-.4.4-2.79-.142a.734.734,0,0,0-.77.771l.141,2.79-2.037,2.036-2.79-.141A.734.734,0,0,0,21,16.9l.141,2.79L17.79,23.035a.734.734,0,0,0-.189.712A8.231,8.231,0,0,1,3.611,31.5a8.341,8.341,0,0,1,.1-11.287,8.245,8.245,0,0,1,8.114-2.246.734.734,0,0,0,.712-.189L28.846,1.469h5.287Z" fill="#343a40"/>
      <path id="Path_40494" data-name="Path 40494" d="M20.263,20.266A.734.734,0,1,0,21.3,21.3L34.722,7.881a.734.734,0,1,0-1.038-1.038Z" transform="translate(-5.326 -1.761)" fill="#343a40"/>
    </g>
  </g>
</svg>
