<svg xmlns="http://www.w3.org/2000/svg" width="33.281" height="39.887" viewBox="0 0 33.281 39.887">
  <g id="lightbulb" transform="translate(-35.962 -0.025)">
    <g id="Group_3120" data-name="Group 3120" transform="translate(35.966)">
      <g id="Group_3119" data-name="Group 3119">
        <path id="Path_40503" data-name="Path 40503" d="M115.594,93.2a10.28,10.28,0,0,0-6.794,17.982c1.625,1.625,1.477,5.1,1.44,5.132a.611.611,0,0,0,.185.48.681.681,0,0,0,.443.185h9.415a.611.611,0,0,0,.443-.185.7.7,0,0,0,.185-.48c0-.037-.185-3.508,1.44-5.132l.111-.111A10.249,10.249,0,0,0,115.594,93.2Zm5.908,17.022c-.037.037-.111.111-.111.148-1.44,1.551-1.7,4.1-1.735,5.317H111.5c-.037-1.218-.3-3.877-1.846-5.465a8.991,8.991,0,1,1,11.852,0Z" transform="translate(-98.926 -84.597)" fill="#00a4b4"/>
        <path id="Path_40504" data-name="Path 40504" d="M209.957,121.6a.628.628,0,1,0,0,1.255,6.721,6.721,0,0,1,6.72,6.719.628.628,0,1,0,1.255,0,7.942,7.942,0,0,0-7.975-7.975Z" transform="translate(-193.326 -110.375)" fill="#00a4b4"/>
        <path id="Path_40505" data-name="Path 40505" d="M164.677,358.4h-8.2a1.551,1.551,0,1,0,0,3.1h8.16a1.592,1.592,0,0,0,1.588-1.551A1.56,1.56,0,0,0,164.677,358.4Zm0,1.809h-8.2a.291.291,0,0,1-.3-.3.272.272,0,0,1,.3-.3h8.16a.291.291,0,0,1,.3.3.263.263,0,0,1-.26.3Z" transform="translate(-143.948 -325.317)" fill="#00a4b4"/>
        <path id="Path_40506" data-name="Path 40506" d="M175.44,398.8h-5.76a1.551,1.551,0,0,0,0,3.1h5.76a1.56,1.56,0,0,0,1.551-1.551,1.537,1.537,0,0,0-1.551-1.549Zm0,1.809h-5.76a.291.291,0,0,1-.3-.3.272.272,0,0,1,.3-.3h5.76a.3.3,0,0,1,0,.591Z" transform="translate(-155.929 -361.988)" fill="#00a4b4"/>
        <path id="Path_40507" data-name="Path 40507" d="M209.957,5.538a.622.622,0,0,0,.628-.628V.628a.628.628,0,0,0-1.255,0V4.911a.647.647,0,0,0,.627.627Z" transform="translate(-193.326)" fill="#00a4b4"/>
        <path id="Path_40508" data-name="Path 40508" d="M296.475,33.232a.6.6,0,0,0-.849.148l-2.363,3.545a.608.608,0,0,0,.148.886.6.6,0,0,0,.332.111.589.589,0,0,0,.517-.3l2.363-3.545a.572.572,0,0,0-.148-.845Z" transform="translate(-269.395 -30.057)" fill="#00a4b4"/>
        <path id="Path_40509" data-name="Path 40509" d="M105.982,35.773a.6.6,0,0,0,.332-.111.647.647,0,0,0,.185-.886l-2.289-3.582a.64.64,0,0,0-1.071.7l2.289,3.582a.613.613,0,0,0,.554.3Z" transform="translate(-96.847 -28.056)" fill="#00a4b4"/>
        <path id="Path_40510" data-name="Path 40510" d="M40.633,105.39,36.9,103.36a.65.65,0,0,0-.849.258.589.589,0,0,0,.258.849l3.729,2.031a.869.869,0,0,0,.3.074.609.609,0,0,0,.554-.332.65.65,0,0,0-.259-.85Z" transform="translate(-35.966 -93.759)" fill="#00a4b4"/>
        <path id="Path_40511" data-name="Path 40511" d="M347.162,103.618a.65.65,0,0,0-.849-.258l-3.766,2.031a.65.65,0,0,0-.258.849.609.609,0,0,0,.554.332.7.7,0,0,0,.3-.074l3.766-2.031a.65.65,0,0,0,.253-.849Z" transform="translate(-313.953 -93.759)" fill="#00a4b4"/>
      </g>
    </g>
  </g>
</svg>
