<svg xmlns="http://www.w3.org/2000/svg" width="49.873" height="37.004" viewBox="0 0 49.873 37.004">
  <g id="line" transform="translate(-1 -9)">
    <path id="Path_40512" data-name="Path 40512" d="M43.525,35.63a10.348,10.348,0,0,1-7.365-3.05A8.75,8.75,0,0,0,29.932,30H13V47.7a2.413,2.413,0,0,0,2.413,2.413H50.8A2.413,2.413,0,0,0,53.217,47.7V35.63ZM33.109,45.283H17.826a.8.8,0,0,1,0-1.609H33.109a.8.8,0,0,1,0,1.609Z" transform="translate(-2.348 -4.109)" fill="#00a4b4"/>
    <path id="Path_40513" data-name="Path 40513" d="M29.932,26.63A10.348,10.348,0,0,1,37.3,29.681a8.75,8.75,0,0,0,6.228,2.58H53.22V23.413A2.413,2.413,0,0,0,50.8,21H15.413A2.413,2.413,0,0,0,13,23.413V26.63Z" transform="translate(-2.348 -2.348)" fill="#00a4b4"/>
    <g id="Group_3121" data-name="Group 3121" transform="translate(1 9)">
      <path id="Path_40514" data-name="Path 40514" d="M38.84,9H3.448a2.413,2.413,0,0,0-2.413,2.413c0,8.658-.08,8.043,0,8.043V33.935a2.413,2.413,0,0,0,2.413,2.413H38.84a2.413,2.413,0,0,0,2.413-2.413V11.413A2.413,2.413,0,0,0,38.84,9ZM3.448,10.609H38.84a.8.8,0,0,1,.8.8v2.413h-37V11.413a.8.8,0,0,1,.808-.8Zm36.2,8.043h-37V15.435h37Zm-.8,16.087H3.448a.8.8,0,0,1-.8-.8V20.261h37V33.935a.8.8,0,0,1-.808.8Z" transform="translate(-1 -9)" fill="#343a40"/>
      <path id="Path_40515" data-name="Path 40515" d="M24.327,33H9.848a.8.8,0,0,0,0,1.609H24.327a.8.8,0,0,0,0-1.609Z" transform="translate(-2.573 -13.696)" fill="#343a40"/>
      <path id="Path_40516" data-name="Path 40516" d="M38.674,30H35.457a2.413,2.413,0,0,0-2.413,2.413v1.609a2.413,2.413,0,0,0,2.413,2.413h3.217a2.413,2.413,0,0,0,2.413-2.413V32.413A2.413,2.413,0,0,0,38.674,30Zm.8,4.022a.8.8,0,0,1-.8.8H35.457a.8.8,0,0,1-.8-.8V32.413a.8.8,0,0,1,.8-.8h3.217a.8.8,0,0,1,.8.8Z" transform="translate(-7.269 -13.109)" fill="#343a40"/>
    </g>
  </g>
</svg>
