<svg id="ready_to_learn" xmlns="http://www.w3.org/2000/svg" width="399.83" height="322.269" viewBox="0 0 399.83 322.269">
  <circle id="Ellipse_270" data-name="Ellipse 270" cx="45.362" cy="45.362" r="45.362" transform="translate(67.187 123.575)" fill="#e6e6e6"/>
  <path id="Path_40324" data-name="Path 40324" d="M382.572,527.106l11.158,6.915v-46.74l-12.508-7.75a4.852,4.852,0,0,1-2.117-2.818h0a4.852,4.852,0,0,1,3.466.641l11.158,6.915V466.145a42.882,42.882,0,0,1,1.28-10.4,42.884,42.884,0,0,1,1.28,10.4v29.582l16.462-10.2a8.067,8.067,0,0,1,4.382-1.209A8.068,8.068,0,0,1,414.1,487.7l-17.811,11.037V609.274H393.73V537.033l-12.507-7.75a4.851,4.851,0,0,1-2.117-2.818h0A4.852,4.852,0,0,1,382.572,527.106Z" transform="translate(-282.279 -291.928)" fill="#ccc"/>
  <circle id="Ellipse_271" data-name="Ellipse 271" cx="45.362" cy="45.362" r="45.362" transform="translate(0 127.427)" fill="#e6e6e6"/>
  <path id="Path_40325" data-name="Path 40325" d="M255.592,535.359l-11.158,6.914V495.534l12.507-7.75a4.852,4.852,0,0,0,2.117-2.818h0a4.852,4.852,0,0,0-3.466.641l-11.158,6.915V474.4a42.883,42.883,0,0,0-1.28-10.4,42.88,42.88,0,0,0-1.28,10.4v29.582l-16.462-10.2a8.067,8.067,0,0,0-4.381-1.209,8.068,8.068,0,0,0,3.033,3.385l17.811,11.037V613.919h2.561V545.286l12.507-7.75a4.853,4.853,0,0,0,2.117-2.818h0a4.852,4.852,0,0,0-3.466.642Z" transform="translate(-197.974 -296.33)" fill="#ccc"/>
  <circle id="Ellipse_272" data-name="Ellipse 272" cx="78.102" cy="78.102" r="78.102" transform="translate(0.211 0)" fill="#e6e6e6"/>
  <path id="Path_40326" data-name="Path 40326" d="M316.647,376.051l-19.212,11.9V307.483l21.534-13.344a8.353,8.353,0,0,0,3.645-4.852h0a8.354,8.354,0,0,0-5.967,1.1L297.435,302.3V271.1a73.87,73.87,0,0,0-2.2-17.924,73.832,73.832,0,0,0-2.2,17.924v50.933L264.683,304.46a13.89,13.89,0,0,0-7.544-2.081,13.89,13.89,0,0,0,5.221,5.829l30.665,19V501.661h4.409V393.143L318.969,379.8a8.353,8.353,0,0,0,3.645-4.852h0a8.354,8.354,0,0,0-5.967,1.1Z" transform="translate(-217.232 -183.9)" fill="#ccc"/>
  <rect id="Rectangle_1637" data-name="Rectangle 1637" width="368.681" height="0.933" transform="translate(31.149 317.345)" fill="#3f3d56"/>
  <rect id="Rectangle_1638" data-name="Rectangle 1638" width="21.129" height="21.129" transform="translate(286.584 151.473) rotate(-30)" fill="#ff6584"/>
  <path id="Path_40327" data-name="Path 40327" d="M812.809,442.235l-11.031-19.107L820.884,412.1l11.031,19.1Zm-9.756-18.765,10.1,17.49,17.49-10.1-10.1-17.49Z" transform="translate(-507.696 -268.651)" fill="#2f2e41"/>
  <circle id="Ellipse_273" data-name="Ellipse 273" cx="8.867" cy="8.867" r="8.867" transform="translate(279.128 207.193)" fill="#d0cde1"/>
  <path id="Path_40328" data-name="Path 40328" d="M792.069,566.359a9.334,9.334,0,1,1,9.334-9.334A9.334,9.334,0,0,1,792.069,566.359Zm0-17.734a8.4,8.4,0,1,0,8.4,8.4A8.4,8.4,0,0,0,792.069,548.625Z" transform="translate(-497.54 -340.966)" fill="#2f2e41"/>
  <path id="Path_40329" data-name="Path 40329" d="M805.934,689.009h-85.87a3.971,3.971,0,0,1-3.967-3.967v-79.8a3.971,3.971,0,0,1,3.967-3.967h85.87a3.971,3.971,0,0,1,3.967,3.967v79.8a3.971,3.971,0,0,1-3.967,3.967Z" transform="translate(-462.001 -369.541)" fill="#fff"/>
  <path id="Path_40330" data-name="Path 40330" d="M811.2,689.1H799.063a3.971,3.971,0,0,1-3.967-3.967V600.159a3.971,3.971,0,0,1,3.967-3.967H811.2a3.971,3.971,0,0,1,3.967,3.967v84.976A3.971,3.971,0,0,1,811.2,689.1Z" transform="translate(-504.133 -366.831)" fill="#3f3d56"/>
  <path id="Path_40331" data-name="Path 40331" d="M932.977,566.564c-.5,8.233-11.622,14.253-11.622,14.253s-10.307-7.327-9.8-15.559,11.622-14.253,11.622-14.253S933.478,558.332,932.977,566.564Z" transform="translate(-566.229 -342.733)" fill="#3f3d56"/>
  <path id="Path_40332" data-name="Path 40332" d="M942.233,614.874C934,614.4,927.944,603.3,927.944,603.3s7.294-10.33,15.528-9.854,14.29,11.578,14.29,11.578S950.467,615.35,942.233,614.874Z" transform="translate(-574.982 -365.357)" fill="#3f3d56"/>
  <path id="Path_40333" data-name="Path 40333" d="M710.342,506.579v30.465l-30.3-39.995h23.082Z" transform="translate(-362.676 -265.084)" opacity="0.1"/>
  <path id="Path_40334" data-name="Path 40334" d="M895.036,621.6a3.962,3.962,0,0,1-3.166-1.57l-63.13-83.32a3.967,3.967,0,0,1,.766-5.557l9.3-7.046a3.966,3.966,0,0,1,5.557.767l63.13,83.326a3.967,3.967,0,0,1-.766,5.557l-9.3,7.046a3.944,3.944,0,0,1-2.391.8Z" transform="translate(-521.646 -327.958)" fill="#fff"/>
  <rect id="Rectangle_1639" data-name="Rectangle 1639" width="20.067" height="20.067" transform="translate(332.126 241.021) rotate(-37.15)" fill="#3f3d56"/>
  <rect id="Rectangle_1640" data-name="Rectangle 1640" width="21.129" height="21.129" transform="translate(260.373 188.355) rotate(-74.991)" fill="#d0cde1"/>
  <path id="Path_40335" data-name="Path 40335" d="M730.373,495.706,709.063,490l5.71-21.311,21.31,5.71Zm-20.167-6.37,19.507,5.227,5.227-19.508-19.507-5.227Z" transform="translate(-458.25 -298.83)" fill="#2f2e41"/>
  <path id="Path_40336" data-name="Path 40336" d="M539.307,544.489a5.312,5.312,0,0,0-.544-8.127l-8.57-69.084L519.12,470.57l11.954,67.23a5.341,5.341,0,0,0,8.232,6.688Z" transform="translate(-356.951 -298.08)" fill="#ffb8b8"/>
  <path id="Path_40337" data-name="Path 40337" d="M412.742,640.943h6.476l3.082-24.979h-9.559Z" transform="translate(-220.122 -328.503)" fill="#ffb8b8"/>
  <path id="Path_40338" data-name="Path 40338" d="M0,0H20.354V7.864H7.145A7.145,7.145,0,0,1,0,.719Z" transform="translate(211.586 318.454) rotate(180)" fill="#2f2e41"/>
  <path id="Path_40339" data-name="Path 40339" d="M316.779,621.12l6.07,2.258,11.6-22.338-8.958-3.333Z" transform="translate(-168.943 -318.767)" fill="#ffb8b8"/>
  <path id="Path_40340" data-name="Path 40340" d="M0,0H20.354V7.864H7.145A7.145,7.145,0,0,1,0,.72Z" transform="matrix(-0.937, -0.349, 0.349, -0.937, 163.515, 314.602)" fill="#2f2e41"/>
  <circle id="Ellipse_274" data-name="Ellipse 274" cx="12.245" cy="12.245" r="12.245" transform="translate(168.757 126.774)" fill="#ffb8b8"/>
  <path id="Path_40341" data-name="Path 40341" d="M498.924,452.231c-.383-11.279,11.471-19.1,21.444-13.823,1.271.673,14.391,11.82,14.886,18.743s1.483,18.3,1.483,18.3L550.583,578.79l-29.668-1.483L524.5,547.16l-19.284,30.657-23.362-7.433,28.679-82.576S499.505,469.324,498.924,452.231Z" transform="translate(-337.075 -281.784)" fill="#2f2e41"/>
  <path id="Path_40342" data-name="Path 40342" d="M518.932,477.1l1.905,24.766a1.03,1.03,0,0,0,1.027.951h8.382a1.029,1.029,0,0,0,.951-1.424L520.91,476.627a1.03,1.03,0,0,0-1.977.474Z" transform="translate(-356.848 -302.727)" fill="#2f2e41"/>
  <path id="Path_40343" data-name="Path 40343" d="M578.379,537.119a5.312,5.312,0,0,0-1.491-8.008l-16.6-67.606-10.611,4.565,19.74,65.369a5.341,5.341,0,0,0,8.959,5.679Z" transform="translate(-373.249 -295.001)" fill="#ffb8b8"/>
  <path id="Path_40344" data-name="Path 40344" d="M551.083,446.773s-3.461,6.923,0,19.284,5.933,22.745,5.933,22.745,7.911-4.945,11.373-3.461-5.475-32.953-5.475-32.953S557.511,440.839,551.083,446.773Z" transform="translate(-373.176 -286.24)" fill="#2f2e41"/>
  <path id="Path_40345" data-name="Path 40345" d="M535.686,380.917c.165-2.541,3.371-2.628,5.917-2.652s5.59.067,7.031-2.033a4.745,4.745,0,0,0-.016-4.8,13.643,13.643,0,0,0-3.353-3.732c-3.286-2.842-6.673-5.661-10.618-7.479s-8.568-2.554-12.66-1.094c-5.026,1.793-11.821,11.026-12.407,16.33a19.237,19.237,0,0,0,5.106,14.675c3.573,3.964,11.752,2.364,16.9,3.775-3.129-4.429-1.067-12.476,3.946-14.544Z" transform="translate(-351.81 -239.987)" fill="#2f2e41"/>
</svg>
