<svg xmlns="http://www.w3.org/2000/svg" width="20" height="20" viewBox="0 0 20 20"><defs><style>.a{fill:none;}.b{fill:#343a40;}</style></defs><path class="a" d="M0,0H20V20H0Z"/><path class="b" d="M15.458,13.709a2.417,2.417,0,0,0-1.628.64L7.908,10.9a2.726,2.726,0,0,0,.075-.582,2.726,2.726,0,0,0-.075-.582l5.855-3.418a2.49,2.49,0,1,0-.8-1.821,2.726,2.726,0,0,0,.075.582L7.186,8.495a2.495,2.495,0,1,0,0,3.642L13.1,15.6a2.349,2.349,0,0,0-.066.541,2.425,2.425,0,1,0,2.425-2.428Zm0-10.046a.832.832,0,1,1-.831.832A.834.834,0,0,1,15.458,3.663ZM5.492,11.148a.832.832,0,1,1,.831-.832A.834.834,0,0,1,5.492,11.148Zm9.966,5.838a.832.832,0,1,1,.831-.832A.834.834,0,0,1,15.458,16.986Z" transform="translate(-0.475 -0.317)"/></svg>