<svg xmlns="http://www.w3.org/2000/svg" xmlns:xlink="http://www.w3.org/1999/xlink" width="372.518" height="269.238" viewBox="0 0 372.518 269.238">
  <defs>
    <linearGradient id="linear-gradient" x1="0.5" y1="1" x2="0.5" gradientUnits="objectBoundingBox">
      <stop offset="0" stop-color="gray" stop-opacity="0.251"/>
      <stop offset="0.54" stop-color="gray" stop-opacity="0.122"/>
      <stop offset="1" stop-color="gray" stop-opacity="0.102"/>
    </linearGradient>
  </defs>
  <g id="stripe_payments" transform="translate(-0.001 -11.863)">
    <path id="Path_40718" data-name="Path 40718" d="M251.442,101.723c-23.881-.847-46.629-8.746-68.347-17.387s-43.236-18.218-66.544-22.8c-14.993-2.944-32.14-3.359-44.219,4.873C60.7,74.324,56.95,88.019,54.932,100.7c-1.52,9.56-2.413,19.6,1.747,28.54,2.891,6.208,8.024,11.423,11.575,17.367C80.6,167.292,71.881,192.8,58.49,213c-6.264,9.475-13.559,18.514-18.4,28.6S33,263.242,37.239,273.531c4.2,10.2,14.212,17.858,25.055,23.245,22.025,10.945,47.98,14.077,73.289,15.851,56.024,3.926,112.348,2.225,168.521.524,20.789-.633,41.667-1.269,62.12-4.563,11.354-1.83,23.077-4.731,31.319-11.74,10.467-8.9,13.062-23.957,6.046-35.11-11.753-18.7-44.281-23.344-52.5-43.428-4.526-11.051.122-23.36,6.7-33.626,14.11-21.986,37.76-41.275,39.007-66.409.857-17.262-10.513-34.549-28.091-42.715-18.429-8.571-43.978-7.484-57.574,6.686C297.128,96.861,272.528,102.475,251.442,101.723Z" transform="translate(-35 -47.748)" fill="#00a4b4" opacity="0.1"/>
    <ellipse id="Ellipse_331" data-name="Ellipse 331" cx="30.511" cy="4.576" rx="30.511" ry="4.576" transform="translate(193.28 271.95)" fill="#00a4b4" opacity="0.1"/>
    <path id="Path_40721" data-name="Path 40721" d="M525.024,758.562l-58.744-.752.175-1.507,2.839-24.854h51.59l3.795,24.854.29,1.882Z" transform="translate(-312.561 -490.291)" fill="#d0d2d5"/>
    <path id="Path_40722" data-name="Path 40722" d="M524.968,808.722H495.654l-29.374-.376.175-1.507h58.223Z" transform="translate(-312.561 -540.827)" opacity="0.1"/>
    <rect id="Rectangle_1717" data-name="Rectangle 1717" width="77.951" height="1.882" transform="translate(143.928 266.388)" fill="#d0d2d5"/>
    <path id="Path_40723" data-name="Path 40723" d="M471.146,292.319a4.9,4.9,0,0,0-4.879-4.929H248.579a4.905,4.905,0,0,0-4.879,4.929V424.273H471.146Z" transform="translate(-174.897 -200.435)" fill="#444053"/>
    <path id="Path_40724" data-name="Path 40724" d="M243.7,698.6v15.455a4.879,4.879,0,0,0,4.879,4.879H466.267a4.876,4.876,0,0,0,4.879-4.879V698.6Z" transform="translate(-174.897 -476.081)" fill="#d0d2d5"/>
    <rect id="Rectangle_1718" data-name="Rectangle 1718" width="209.746" height="118.619" transform="translate(78.218 95.24)" fill="#fff"/>
    <path id="Path_40725" data-name="Path 40725" d="M581.843,721.907a5.087,5.087,0,0,0,4-1.942h0a5.04,5.04,0,0,0,.4-.583l-2.776-.462,3.016.023a5.09,5.09,0,0,0,.1-4.029l-4.045,2.1,3.732-2.743a5.084,5.084,0,1,0-8.4,5.69h0A5.087,5.087,0,0,0,581.843,721.907Z" transform="translate(-398.186 -484.916)" fill="#00a4b4"/>
    <path id="Path_40726" data-name="Path 40726" d="M572.51,736.59l23.436,23.535-3.6-23.535Z" transform="translate(-383.77 -493.737)" opacity="0.1"/>
    <rect id="Rectangle_1719" data-name="Rectangle 1719" width="209.974" height="6.93" transform="translate(78.053 95.253)" fill="#444053" opacity="0.1"/>
    <rect id="Rectangle_1720" data-name="Rectangle 1720" width="6.026" height="4.216" rx="0.78" transform="translate(79.257 96.46)" fill="#00a4b4"/>
    <rect id="Rectangle_1721" data-name="Rectangle 1721" width="63.264" height="4.216" rx="0.58" transform="translate(150.957 96.46)" fill="#00a4b4" opacity="0.3"/>
    <path id="Path_40727" data-name="Path 40727" d="M674.2,319.64h-.155l-.056-.046a1.3,1.3,0,0,0,.3-.821,1.249,1.249,0,1,0-1.243,1.256,1.319,1.319,0,0,0,.818-.3l.056.046v.155l.966.966.287-.29Zm-1.154,0a.87.87,0,1,1,.867-.867.86.86,0,0,1-.867.867Z" transform="translate(-461.859 -220.638)" fill="#444053"/>
    <circle id="Ellipse_332" data-name="Ellipse 332" cx="2.11" cy="2.11" r="2.11" transform="translate(282.904 96.456)" fill="#00a4b4"/>
    <path id="Path_40728" data-name="Path 40728" d="M528.355,413.74H432.22a5.838,5.838,0,0,0-6.03,5.624v52.919a5.838,5.838,0,0,0,6.03,5.624h96.135a5.838,5.838,0,0,0,6.03-5.624V419.364A5.838,5.838,0,0,0,528.355,413.74Z" transform="translate(-297.226 -285.131)" opacity="0.1"/>
    <rect id="Rectangle_1722" data-name="Rectangle 1722" width="100.906" height="64.167" rx="18.67" transform="translate(132.64 125.596)" fill="#454b69"/>
    <rect id="Rectangle_1723" data-name="Rectangle 1723" width="16.042" height="5.443" rx="2.721" transform="translate(143.239 161.688)" fill="#00a4b4" opacity="0.3"/>
    <rect id="Rectangle_1724" data-name="Rectangle 1724" width="16.042" height="5.443" rx="2.721" transform="translate(164.724 161.688)" fill="#00a4b4" opacity="0.3"/>
    <rect id="Rectangle_1725" data-name="Rectangle 1725" width="14.037" height="4.009" rx="2.004" transform="translate(173.602 172.861)" fill="#00a4b4" opacity="0.3"/>
    <rect id="Rectangle_1726" data-name="Rectangle 1726" width="16.042" height="5.443" rx="2.721" transform="translate(186.208 161.688)" fill="#00a4b4" opacity="0.3"/>
    <rect id="Rectangle_1727" data-name="Rectangle 1727" width="16.042" height="5.443" rx="2.721" transform="translate(207.693 161.688)" fill="#00a4b4" opacity="0.3"/>
    <rect id="Rectangle_1728" data-name="Rectangle 1728" width="10.886" height="10.886" rx="2.95" transform="translate(144.67 148.798)" fill="#00a4b4"/>
    <path id="Path_40729" data-name="Path 40729" d="M488.785,489.935H485.35V486.5h3.435Zm-3.3-.142h3.152v-3.152h-3.152Z" transform="translate(-336.882 -333.904)" fill="#454b69"/>
    <rect id="Rectangle_1729" data-name="Rectangle 1729" width="0.142" height="3.867" transform="translate(150.113 148.798)" fill="#454b69"/>
    <rect id="Rectangle_1730" data-name="Rectangle 1730" width="0.142" height="3.725" transform="translate(150.113 155.959)" fill="#454b69"/>
    <rect id="Rectangle_1731" data-name="Rectangle 1731" width="3.867" height="0.142" transform="translate(144.67 154.169)" fill="#454b69"/>
    <rect id="Rectangle_1732" data-name="Rectangle 1732" width="3.725" height="0.142" transform="translate(151.834 154.169)" fill="#454b69"/>
    <path id="Path_40730" data-name="Path 40730" d="M442.648,460.613l-1.124-1.118H438.83v-.145h2.753l1.167,1.16Z" transform="translate(-294.16 -307.895)" fill="#454b69"/>
    <path id="Path_40731" data-name="Path 40731" d="M460.506,460.613l-.1-.105,1.309-1.157h2.463v.145h-2.407Z" transform="translate(-308.626 -307.895)" fill="#454b69"/>
    <path id="Path_40732" data-name="Path 40732" d="M441.586,474.311H438.83v-.145h2.69l1.124-1.3.109.1Z" transform="translate(-294.16 -316.957)" fill="#454b69"/>
    <path id="Path_40733" data-name="Path 40733" d="M464.175,474.3h-2.466l-1.309-1.342.1-.1,1.269,1.3h2.4Z" transform="translate(-308.619 -316.951)" fill="#454b69"/>
    <rect id="Rectangle_1733" data-name="Rectangle 1733" width="30.508" height="5.443" rx="2.721" transform="translate(143.167 130.538)" fill="#00a4b4"/>
    <path id="Path_40734" data-name="Path 40734" d="M647.356,544.224c-.02-.567-.089-1.134-.158-1.7-.254-2.116-.514-4.233-.926-6.32a6.707,6.707,0,0,0-.33-1.193c-.148-.366-.353-.7-.508-1.065a.186.186,0,0,0,0-.04c.191-.092.379-.185.564-.284a2.826,2.826,0,0,0,.382-.234,1.083,1.083,0,0,0,.3-.33c.33-.58-.04-1.319-.208-1.978h0c-.178-.709-.138-1.559-.659-2.034-1.859-1.648-.936-5.011-1.866-7.371-.165-.412-.353-.818-.495-1.24-.109-.33-.185-.659-.264-.989q-.989-4.121-2.083-8.206c-.768-2.822-.686-5.763-1.648-8.519a9.163,9.163,0,0,0-.709-1.648,4.425,4.425,0,0,0-1.279-1.381A12.51,12.51,0,0,0,633,497.546a24.278,24.278,0,0,0-5.11-.29,5.413,5.413,0,0,0-2.387-1.863l-.03-.086a5.9,5.9,0,0,1-.31-1.032,7.033,7.033,0,0,1-.082-1.055c0-.379-.016-.762-.026-1.141l.092-.089a6.388,6.388,0,0,0,.607-.745,5.227,5.227,0,0,0,.462-.788,7.317,7.317,0,0,0,.376-.966,10.883,10.883,0,0,0,.406-2.047c.089-.814.115-1.648.138-2.463V483.93a4.441,4.441,0,0,0-.613-2.4,4.968,4.968,0,0,0-2.6-1.675c-1.978-.686-4.151-1.137-6.105-.4-1.553.587-2.792,1.866-4.325,2.515h0a1.884,1.884,0,0,1,.1.181.2.2,0,0,1,0,.026c.026.059.049.115.069.175h0a2.166,2.166,0,0,1,.109.412h0a2.44,2.44,0,0,1,0,.8,2.75,2.75,0,0,1-1.477.218,4.7,4.7,0,0,0,.93,1.688c.135.171.277.33.412.511l.208.257a5.349,5.349,0,0,1,.854,1.381,2.691,2.691,0,0,1,.161.617c.063.419.046.9.1,1.319a2.006,2.006,0,0,0,.135.524,5.522,5.522,0,0,0,2.927,4.111,12.135,12.135,0,0,1,0,3.936,1.017,1.017,0,0,1-.043.218,19.332,19.332,0,0,1-2.862,3.208,10.413,10.413,0,0,1-1.606,1.035,4.4,4.4,0,0,1-1.058.438c-.415.1-.851.082-1.263.185a3.3,3.3,0,0,0-1.876,1.526,11.031,11.031,0,0,1-.692,1.114c-.231.287-.521.521-.765.795a7.046,7.046,0,0,0-1.319,3.758,17.2,17.2,0,0,1-2.252,2.08,3.3,3.3,0,0,1-.837.485,2.61,2.61,0,0,1-2.308-.574c-.676-.5-1.2-1.16-1.856-1.675l-.172.254a1.377,1.377,0,0,1-.135-.155,3.3,3.3,0,0,1-.544-1.259c-.237-1.216.211-2.519-.138-3.7-.129-.429-.438-.87-.867-.86s-.7.438-1.065.64a2.029,2.029,0,0,1-1.906-.3,2.575,2.575,0,0,0-1.9-.5,1.348,1.348,0,0,0,.491,1.121,2.99,2.99,0,0,1,.8.966,4.365,4.365,0,0,1,.109,1.249,4.949,4.949,0,0,0,1.233,2.542q1.068,1.368,2.235,2.657h0a.824.824,0,0,1-.415.359.874.874,0,0,0,0,.478,1.938,1.938,0,0,0,.125.313c.076.155.168.307.247.448l1.157,2.034.188.33c.079.138.158.27.241.405a7.461,7.461,0,0,0,.966,1.319,3.955,3.955,0,0,0,.607.521,3.15,3.15,0,0,0,.452.27,2.64,2.64,0,0,0,.7.241,2.184,2.184,0,0,0,.363.046,2.427,2.427,0,0,0,.379,0,5.053,5.053,0,0,0,1.111-.287,55.565,55.565,0,0,0,6.326-3.063,3.522,3.522,0,0,1,.92-.356,1.508,1.508,0,0,1,.33-.026,1.212,1.212,0,0,1,.33.056,1.192,1.192,0,0,1,.3.148.854.854,0,0,1,.359.534c.063.33.122.636.181.953s.125.633.191.949c.132.63.274,1.259.438,1.882.089.33.175.679.26,1.022.211.837.419,1.681.61,2.525.059.264.115.531.168.794a12.193,12.193,0,0,1,.211,1.421.124.124,0,0,1,0,.033c.033.415.036.827.04,1.243v1.3l.033,3.844a3.166,3.166,0,0,1-.531,1.4c-.046.1-.089.208-.125.313h0a3.552,3.552,0,0,0-.109.409.934.934,0,0,1-.026.132.639.639,0,0,1-.02.152c-.02.049,0,.1-.016.145a.429.429,0,0,0,0,.145v.587c0,.04.023.129.033.195l.02.1c.023.1.046.191.079.287.066.2.148.392.234.584s.171.386.244.583a3.952,3.952,0,0,1,.119.382.871.871,0,0,1,.02.089c.026.1.049.2.069.31V539c.02.112.036.227.049.33a.165.165,0,0,1,0,.04c0,.129.026.257.033.386h0a12.712,12.712,0,0,1,0,1.418l-.04,2.347v.073h0a.412.412,0,0,0,.046.211.257.257,0,0,0,.221.119.838.838,0,0,0,.458-.178l1.048-.762h.066a10.23,10.23,0,0,0-1.619,4.441,14.173,14.173,0,0,0,.2,3.142c.966,6.923,3.241,13.909,2.763,20.9-.188,2.753.953,5.436.946,8.192,0,1.071-.181,2.133-.227,3.2-.2,4.589,2.14,9.231,1.187,13.714.33,1.114,1.579,1.708,1.932,2.815a4.51,4.51,0,0,1-.478,2.858,5.823,5.823,0,0,0-.287.989,7.987,7.987,0,0,0-2.664.287,3.967,3.967,0,0,0-.518.211,1.43,1.43,0,0,0-.257,1.9,15.569,15.569,0,0,0,3.079,2.753l1.342.659a8.049,8.049,0,0,0,2.308.87,7.887,7.887,0,0,0,2.047-.039,2.017,2.017,0,0,0,1.444-.57c.478-.607.234-1.592-.092-2.469a.881.881,0,0,0,.27-.366,2.927,2.927,0,0,0,.089-.7,5.275,5.275,0,0,1,.468-1.319,10.7,10.7,0,0,0,.495-4.312,50.016,50.016,0,0,0-.488-7.1c-.165-.989-.389-1.978-.58-2.967a49.1,49.1,0,0,1-.9-10.879,8.706,8.706,0,0,0-.366-2.618,4.7,4.7,0,0,1-.086-1.493l.4-6.036a24.227,24.227,0,0,0,.056-3.692c-.056-.659-.165-1.319-.231-1.978a30.1,30.1,0,0,1-.063-3.778,6.967,6.967,0,0,1,.874-3.9.606.606,0,0,1,.369-.287c.158-.023.2.191.145.33.082.251.168.5.254.748.026.073.049.142.076.211.043.129.089.257.135.386s.066.178.1.267l.129.33c.036.1.076.195.112.29s.082.208.125.31.086.2.132.307.079.188.122.284l.158.33c.04.082.079.168.122.251s.129.241.195.359c.036.069.073.138.112.2.105.185.214.363.33.541h0c.224.33.465.659.659,1.012a3.358,3.358,0,0,1,.185.359,8.875,8.875,0,0,1,.432,1.4c.115.435.251.86.4,1.279s.33.837.491,1.246c.089.2.181.409.274.61.277.61.577,1.21.88,1.8a1.674,1.674,0,0,1,.125.33,1.518,1.518,0,0,1,.036.168,1.5,1.5,0,0,1,0,.33,1.38,1.38,0,0,1-.026.2,1.543,1.543,0,0,1-.089.3,4.432,4.432,0,0,0,.1,2.75,17.388,17.388,0,0,1,.224,2.9c0,.33,0,.659.03.966,0,.4,0,.8.023,1.2s0,.864.023,1.3a11.294,11.294,0,0,1-.053,1.3,2.942,2.942,0,0,1-.063.448c-.073.445-.175.887-.264,1.319a26.222,26.222,0,0,0-.455,5.275q0,1.065.069,2.133c.04.715.1,1.427.158,2.143.033.392.073.785.112,1.177.066.679.138,1.358.211,2.037s.152,1.427.221,2.136.132,1.418.181,2.123a1.777,1.777,0,0,1-.211,1.009,2.262,2.262,0,0,0-.165.382,2.052,2.052,0,0,0-.073.28,2.961,2.961,0,0,0-.04.33,3.758,3.758,0,0,0,.04.692q.026.171.059.33c.049.227.109.455.168.679a6.837,6.837,0,0,0,.659,1.78,2.642,2.642,0,0,0,.218.33c.023.033.049.063.076.1a2.384,2.384,0,0,1,.188.251.8.8,0,0,1,.069.129,1.012,1.012,0,0,1,.04.57c-.036.2-.105.4-.158.584h0l.171.023a2.265,2.265,0,0,0,.053,2.054,2,2,0,0,0,1.444.57,7.748,7.748,0,0,0,2.047.043,8.049,8.049,0,0,0,2.308-.87l1.342-.659a15.068,15.068,0,0,0,3.076-2.756,1.43,1.43,0,0,0-.254-1.9,3.72,3.72,0,0,0-.518-.214,7.58,7.58,0,0,0-2.45-.284c-.046-.33-.073-.689-.086-1.029a28.43,28.43,0,0,1,.073-3.785c.076-.893.191-1.784.181-2.677a33.252,33.252,0,0,0-.376-3.56c-.129-1.187-.142-2.347-.161-3.521a34.976,34.976,0,0,1,.7-5.08l.386-3a3.652,3.652,0,0,0,.026-1.1c-.059-.33-.211-.659-.274-.989a7.254,7.254,0,0,1,.31-2.245,9.487,9.487,0,0,0-.188-2.618,34.033,34.033,0,0,1-.227-4.141c-.119-8.505-.359-17.2-3.234-25.16-.115-.33-.241-.659-.369-.966a1.73,1.73,0,0,0,.171-.056,1.158,1.158,0,0,0,.254-.132.693.693,0,0,0,.1-.073.762.762,0,0,0,.194-.33,1.245,1.245,0,0,0,.059-.372,2.653,2.653,0,0,0-.1-.659l-.04-.135c-.066-.224-.138-.445-.214-.659h0c-.073-.214-.152-.422-.234-.633a7.705,7.705,0,0,1-.415-1.21c-.2-.936,0-2.018-.564-2.779-1.246-1.708-.366-4.332-.887-6.412-.171-.659-.422-1.319-.58-1.978-.1-.422-.161-.854-.224-1.286a16.02,16.02,0,0,1-.244-2.829,12.091,12.091,0,0,1,.129-1.421l.4-3.27a9.757,9.757,0,0,1,.936,2.69c.03.135.056.267.086.4a47.588,47.588,0,0,0,1.319,4.774c.3.946.6,1.889.92,2.825.1.267.188.537.274.811a6.537,6.537,0,0,1,.2.834c.036.224.053.455.069.682s.03.462.053.689a6.488,6.488,0,0,0,.956,2.74q.025.032.046.066a.778.778,0,0,0,.4.349h0a.882.882,0,0,0,.359,0h.02c.175-.036.349-.076.521-.119a.678.678,0,0,0,.076-.02c.079,1.022.382,2.041.409,3.073a17.459,17.459,0,0,1-.867,4.391,27.988,27.988,0,0,0-.59,4.029,1.783,1.783,0,0,0,.049.8.57.57,0,0,0,.6.406.725.725,0,0,0,.425-.379,3.01,3.01,0,0,0,.366-2.173c.313.066.475.425.55.752a4.516,4.516,0,0,1-.138,2.552c-.194.547-.494,1.052-.659,1.615a.843.843,0,0,0,0,.541c.165.379.686.353,1.062.214a5.338,5.338,0,0,0,2.8-2.637,8.084,8.084,0,0,0,.821-3.831Z" transform="translate(-408.744 -328.928)" fill="url(#linear-gradient)"/>
    <path id="Path_40735" data-name="Path 40735" d="M678.318,861.752a2.154,2.154,0,0,1-1.5.567,8.573,8.573,0,0,1-2.133.04,8.7,8.7,0,0,1-2.4-.864l-1.4-.659a15.611,15.611,0,0,1-3.2-2.743,1.373,1.373,0,0,1,.264-1.889,4.294,4.294,0,0,1,.541-.211c1.029-.409,3.112-.2,4.207-.359a2.914,2.914,0,0,1,1.556.366c1.081.478,2.987.857,3.458,2.074C678.078,859.009,679.08,860.826,678.318,861.752Z" transform="translate(-458.938 -581.343)" fill="#2f2e41"/>
    <path id="Path_40736" data-name="Path 40736" d="M723.419,859.005a2.155,2.155,0,0,0,1.5.567,6.435,6.435,0,0,0,4.526-.828l1.4-.659a15.545,15.545,0,0,0,3.2-2.743,1.369,1.369,0,0,0-.267-1.889,3.618,3.618,0,0,0-.537-.211c-1.029-.409-3.112-.2-4.207-.359a2.9,2.9,0,0,0-1.559.366c-1.078.478-2.967.857-3.455,2.074C723.65,856.262,722.644,858.079,723.419,859.005Z" transform="translate(-496.276 -579.499)" fill="#2f2e41"/>
    <path id="Path_40737" data-name="Path 40737" d="M684.451,665.791a16.637,16.637,0,0,1,.88,2c2.993,7.912,3.244,16.569,3.369,25.032a31.8,31.8,0,0,0,.234,4.118,8.825,8.825,0,0,1,.195,2.608,7.18,7.18,0,0,0-.33,2.229c.063.33.221.659.284.989a3.417,3.417,0,0,1-.03,1.1l-.4,2.987a33.458,33.458,0,0,0-.729,5.054c.02,1.17.04,2.341.168,3.5a34.707,34.707,0,0,1,.392,3.541c0,.89-.112,1.777-.191,2.664a27.586,27.586,0,0,0-.076,3.765,5.833,5.833,0,0,0,.659,2.792,5.215,5.215,0,0,1-2.064,1.978c-1.869.818-4.015.541-6.036.247a1.7,1.7,0,0,0,.122-1.151,2.168,2.168,0,0,0-.346-.471,5.6,5.6,0,0,1-.9-2.09,3.473,3.473,0,0,1,0-2.707,1.715,1.715,0,0,0,.221-.989c-.419-5.6-1.668-11.42-.518-16.929a17.97,17.97,0,0,0,.33-1.77,21.69,21.69,0,0,0,.033-2.578l.013-1.23a24.239,24.239,0,0,0-.264-3.847,4.253,4.253,0,0,1-.1-2.736,1.5,1.5,0,0,0-.063-1.319,24.392,24.392,0,0,1-2.13-4.915,8.526,8.526,0,0,0-.448-1.4,9.911,9.911,0,0,0-.883-1.361,20.6,20.6,0,0,1-2.189-4.8c.063-.155,0-.366-.148-.33a.62.62,0,0,0-.386.287,6.679,6.679,0,0,0-.91,3.877,28.6,28.6,0,0,0,.066,3.758c.066.659.181,1.319.241,1.978a23.167,23.167,0,0,1-.059,3.673l-.405,5.98a4.314,4.314,0,0,0,.086,1.487,8.317,8.317,0,0,1,.382,2.6,46.771,46.771,0,0,0,.949,10.807c.2.989.432,1.958.6,2.944a48.169,48.169,0,0,1,.508,7.062,10.107,10.107,0,0,1-.514,4.286,4.907,4.907,0,0,0-.488,1.319,2.727,2.727,0,0,1-.092.7,1.425,1.425,0,0,1-1.124.715,9.149,9.149,0,0,1-2.595.185,1.454,1.454,0,0,1-.59-.132c-.33-.168-.495-.524-.742-.791-.531-.58-1.414-.758-1.9-1.378a2.937,2.937,0,0,1,0-2.819,4.356,4.356,0,0,0,.495-2.845c-.366-1.1-1.648-1.691-2.011-2.8.989-4.464-1.444-9.079-1.236-13.645.049-1.065.234-2.12.237-3.185,0-2.743-1.177-5.413-.989-8.149.5-6.953-1.872-13.9-2.875-20.8a13.433,13.433,0,0,1-.211-3.122A10.381,10.381,0,0,1,661.859,667a6.463,6.463,0,0,1,2.667-2.525,7.571,7.571,0,0,1,3.02-.389c2.552.02,5.1.04,7.655.086a25.176,25.176,0,0,1,5.176.462C681.758,664.947,683.05,665.59,684.451,665.791Z" transform="translate(-453.909 -452.945)" fill="#2f2e41"/>
    <g id="Group_3125" data-name="Group 3125" transform="translate(219.818 226.813)" opacity="0.1">
      <path id="Path_40738" data-name="Path 40738" d="M701.978,711.913a.629.629,0,0,1,.386-.287c.165-.023.214.188.152.33a20.437,20.437,0,0,0,2.186,4.8,9.632,9.632,0,0,1,.887,1.362,8.846,8.846,0,0,1,.448,1.4,24.561,24.561,0,0,0,2.126,4.915,1.49,1.49,0,0,1,.063,1.319,4.232,4.232,0,0,0,.106,2.736,25.461,25.461,0,0,1,.264,3.847c0,.4,0,.8.023,1.2a21.014,21.014,0,0,1-.03,2.578c-.069.6-.214,1.183-.33,1.77-1.147,5.509.1,11.314.518,16.929a1.711,1.711,0,0,1-.218.989,3.362,3.362,0,0,0,0,2.707,5.512,5.512,0,0,0,.9,2.09,2.41,2.41,0,0,1,.33.471,1.627,1.627,0,0,1-.125,1.151,25.424,25.424,0,0,0,2.7.287,19.511,19.511,0,0,1-3.5-.287,1.7,1.7,0,0,0,.122-1.151,2.17,2.17,0,0,0-.346-.471,5.6,5.6,0,0,1-.9-2.09,3.474,3.474,0,0,1,0-2.707,1.714,1.714,0,0,0,.221-.989c-.419-5.6-1.668-11.42-.518-16.929a17.99,17.99,0,0,0,.33-1.77,21.691,21.691,0,0,0,.033-2.578c0-.4-.017-.8-.026-1.2a24.239,24.239,0,0,0-.264-3.847,4.254,4.254,0,0,1-.1-2.736,1.5,1.5,0,0,0-.063-1.319,24.4,24.4,0,0,1-2.13-4.915,8.861,8.861,0,0,0-.448-1.4,9.918,9.918,0,0,0-.883-1.362,19.135,19.135,0,0,1-2.107-4.573A3.339,3.339,0,0,0,701.978,711.913Z" transform="translate(-701.78 -711.625)"/>
    </g>
    <path id="Path_40739" data-name="Path 40739" d="M596.812,563.455c-.247-1.21.221-2.505-.145-3.682-.132-.425-.455-.867-.9-.857s-.725.435-1.108.636a2.18,2.18,0,0,1-1.978-.293,2.792,2.792,0,0,0-1.978-.5,1.309,1.309,0,0,0,.514,1.114,3.067,3.067,0,0,1,.827.963,4.2,4.2,0,0,1,.115,1.243,4.655,4.655,0,0,0,1.282,2.529,45.238,45.238,0,0,0,3.109,3.445,12.842,12.842,0,0,0,1.625-2.417c-.023-.359-.587-.659-.791-.93A3.156,3.156,0,0,1,596.812,563.455Z" transform="translate(-407.494 -382.306)" fill="#a1616a"/>
    <path id="Path_40740" data-name="Path 40740" d="M749.856,645.888a6.406,6.406,0,0,1,.33,1.187c.429,2.077.7,4.183.966,6.287.069.56.142,1.124.162,1.688a7.7,7.7,0,0,1-.8,3.887,5.437,5.437,0,0,1-2.911,2.637c-.389.138-.933.165-1.1-.211a.811.811,0,0,1,0-.537c.155-.56.468-1.065.659-1.609a4.335,4.335,0,0,0,.145-2.538c-.079-.33-.247-.682-.574-.748a2.885,2.885,0,0,1-.382,2.163.749.749,0,0,1-.442.376.6.6,0,0,1-.626-.4,1.725,1.725,0,0,1-.049-.8,26.943,26.943,0,0,1,.613-4.009,16.516,16.516,0,0,0,.9-4.368c-.033-1.352-.57-2.68-.419-4.022a.33.33,0,0,1,.244-.33,8.894,8.894,0,0,1,1.164-.386c.234-.059,1.032-.33,1.256-.211s.237.7.33.907C749.49,645.186,749.7,645.522,749.856,645.888Z" transform="translate(-511.069 -439.42)" fill="#a1616a"/>
    <circle id="Ellipse_333" data-name="Ellipse 333" cx="5.522" cy="5.522" r="5.522" transform="translate(206.585 155.369)" fill="#a1616a"/>
    <path id="Path_40741" data-name="Path 40741" d="M674.363,518.21a6.22,6.22,0,0,0,.082,1.052,5.609,5.609,0,0,0,.33,1.025,5.981,5.981,0,0,0,.771,1.516,2.258,2.258,0,0,0,1.4.91A39.715,39.715,0,0,1,665,526.165a5.037,5.037,0,0,0,1.582-1.691A4.778,4.778,0,0,0,667,523.1a11.538,11.538,0,0,0-.518-5.957c-.069-.185-.135-.415,0-.57a.564.564,0,0,1,.2-.125,12.268,12.268,0,0,1,5.189-.969c.455,0,.91.023,1.365.056.244.02.781-.033.989.145s.115.877.122,1.164Z" transform="translate(-457.307 -353.324)" fill="#a1616a"/>
    <path id="Path_40742" data-name="Path 40742" d="M636.816,531.378a5.914,5.914,0,0,0-7.068-1.76c-2.637,1.256-3.923,4.286-6.234,6.04a10.877,10.877,0,0,1-1.675,1.032,4.677,4.677,0,0,1-1.1.435c-.432.1-.88.082-1.319.185a3.386,3.386,0,0,0-1.955,1.517,10.266,10.266,0,0,1-.719,1.108c-.241.287-.541.521-.794.795a6.872,6.872,0,0,0-1.378,3.738,17.71,17.71,0,0,1-2.347,2.067,3.3,3.3,0,0,1-.87.481,2.761,2.761,0,0,1-2.39-.567c-.689-.5-1.249-1.154-1.929-1.648-.623.89-1.276,1.787-1.942,2.637a.834.834,0,0,1-.435.356c-.125.422.175.857.4,1.233l1.2,2.024a10.261,10.261,0,0,0,1.454,2.037,3.412,3.412,0,0,0,2.212,1.038,4.373,4.373,0,0,0,1.553-.3,58.734,58.734,0,0,0,6.593-3.049,2.931,2.931,0,0,1,1.292-.379,1.045,1.045,0,0,1,1.022.735c.251,1.266.5,2.525.841,3.765q.491,1.76.907,3.531a15.235,15.235,0,0,1,.4,2.206c.036.422.04.844.046,1.269l.046,5.117a3.052,3.052,0,0,1-.554,1.391,3.3,3.3,0,0,0-.155,2.459c.135.4.349.768.5,1.164a8.013,8.013,0,0,1,.33,3.02l-.043,2.334a.488.488,0,0,0,.049.283c.142.221.485.092.7-.059l1.078-.738a24.929,24.929,0,0,0,4.411.214c4.19-.059,8.384.106,12.564.4a10.3,10.3,0,0,0,4.157-.26c.659-.237,1.286-.616,1.978-.8a1.806,1.806,0,0,0,.781-.33c.382-.353.28-.989.125-1.47-.138-.435-.293-.867-.468-1.289a7.827,7.827,0,0,1-.435-1.2c-.208-.93,0-2.008-.583-2.766-1.3-1.7-.379-4.312-.926-6.379-.175-.659-.435-1.319-.6-1.978-.105-.422-.171-.851-.234-1.279a14.98,14.98,0,0,1-.254-2.815,11.28,11.28,0,0,1,.135-1.411l.412-3.257a10.367,10.367,0,0,1,1.062,3.079,45.222,45.222,0,0,0,1.385,4.751c.31.94.62,1.876.956,2.809a9.15,9.15,0,0,1,.491,1.648c.073.452.076.913.129,1.365a6.228,6.228,0,0,0,.989,2.726.9.9,0,0,0,.468.415.939.939,0,0,0,.406,0,16.133,16.133,0,0,0,4.193-1.451,1.711,1.711,0,0,0,.709-.554c.356-.58-.043-1.3-.218-1.962s-.142-1.553-.7-2.024c-1.935-1.648-.989-4.988-1.942-7.335-.171-.412-.369-.811-.514-1.233-.112-.33-.195-.659-.277-.989q-1.012-4.1-2.169-8.166c-.8-2.809-.712-5.733-1.718-8.476a8.938,8.938,0,0,0-.735-1.648,4.5,4.5,0,0,0-1.319-1.375,13.194,13.194,0,0,0-4.648-2.136A25.735,25.735,0,0,0,636.816,531.378Z" transform="translate(-416.84 -362.463)" fill="#3f3d56"/>
    <path id="Path_40743" data-name="Path 40743" d="M656.467,492.544c-.742-.4-.547-1.487-.659-2.308-.26-1.718-2.2-2.733-2.637-4.408a2.967,2.967,0,0,0,1.536-.218A2.354,2.354,0,0,0,654.4,484c1.592-.659,2.885-1.915,4.5-2.5,2.037-.735,4.286-.284,6.356.4a5.055,5.055,0,0,1,2.71,1.665A5.687,5.687,0,0,1,668.6,487a13.01,13.01,0,0,1-.959,5.449c-1.052,2.12-4.035,4.081-6.5,3.508-1.022-.237-1.319-.884-1.757-1.774-.27-.554-.369-1.2-.989-1.487S657.07,492.867,656.467,492.544Z" transform="translate(-449.377 -330.302)" fill="#3f3d56"/>
    <g id="Group_3126" data-name="Group 3126" transform="translate(187.788 184.709)" opacity="0.1">
      <path id="Path_40744" data-name="Path 40744" d="M659.435,666.654a.121.121,0,0,0,0,.03c.142.221.485.092.7-.059l1.095-.755a24.939,24.939,0,0,0,4.411.211c4.19-.059,8.383.105,12.564.4a10.294,10.294,0,0,0,4.157-.26c.659-.237,1.286-.613,1.978-.8a2.276,2.276,0,0,0,.682-.244c.079.218.155.435.224.659.155.5.257,1.118-.125,1.47a1.807,1.807,0,0,1-.781.33c-.686.188-1.319.567-1.978.8a10.3,10.3,0,0,1-4.157.26c-4.18-.293-8.374-.458-12.564-.4a24.93,24.93,0,0,1-4.4-.214l-1.095.758c-.218.152-.56.28-.7.059a.488.488,0,0,1-.049-.283Q659.415,667.636,659.435,666.654Z" transform="translate(-641.333 -638.381)"/>
      <path id="Path_40745" data-name="Path 40745" d="M728.831,597.858a10.367,10.367,0,0,0-1.062-3.079l-.412,3.257c-.026.2-.053.409-.076.613a10.1,10.1,0,0,1-.059-1.411,11.28,11.28,0,0,1,.135-1.411l.412-3.257a10.368,10.368,0,0,1,1.062,3.079,45.2,45.2,0,0,0,1.385,4.751c.31.94.62,1.879.956,2.809a9.226,9.226,0,0,1,.491,1.648c.073.452.076.913.129,1.365a6.178,6.178,0,0,0,.989,2.726.877.877,0,0,0,.465.415.939.939,0,0,0,.406-.017,16.136,16.136,0,0,0,4.193-1.451,2.638,2.638,0,0,0,.491-.313h0c.175.659.574,1.381.218,1.962a1.711,1.711,0,0,1-.709.554,16.136,16.136,0,0,1-4.193,1.451.94.94,0,0,1-.406,0,.877.877,0,0,1-.465-.415,6.192,6.192,0,0,1-.989-2.726c-.053-.452-.056-.913-.129-1.365a9.156,9.156,0,0,0-.491-1.648c-.33-.933-.659-1.869-.956-2.809A45.2,45.2,0,0,1,728.831,597.858Z" transform="translate(-686.801 -589.715)"/>
      <path id="Path_40746" data-name="Path 40746" d="M731.08,635.84v.442C731.087,636.133,731.083,635.988,731.08,635.84Z" transform="translate(-689.39 -618.72)"/>
      <path id="Path_40747" data-name="Path 40747" d="M657.192,650.421a8.013,8.013,0,0,1,.33,3.02v.8a5.443,5.443,0,0,0-.33-1.609c-.152-.4-.366-.765-.5-1.164a3.3,3.3,0,0,1,.026-2.146C656.853,649.7,657.047,650.049,657.192,650.421Z" transform="translate(-639.413 -627.756)"/>
      <path id="Path_40748" data-name="Path 40748" d="M605.095,584.154l.188-.244.989,1.648a10.166,10.166,0,0,0,1.454,2.037,3.412,3.412,0,0,0,2.205,1.071,4.444,4.444,0,0,0,1.553-.3,59.353,59.353,0,0,0,6.593-3.053,2.931,2.931,0,0,1,1.273-.389,1.048,1.048,0,0,1,1.022.738c.251,1.263.5,2.522.841,3.762q.491,1.76.907,3.531a15.243,15.243,0,0,1,.4,2.206c.036.422.04.847.043,1.269l.049,5.12a1.233,1.233,0,0,1-.02.224l-.03-3.135a12.53,12.53,0,0,0-.043-1.269,15.243,15.243,0,0,0-.4-2.206q-.422-1.77-.907-3.531c-.33-1.24-.59-2.5-.841-3.765a1.045,1.045,0,0,0-1.022-.735,2.931,2.931,0,0,0-1.292.379,57.938,57.938,0,0,1-6.593,3.049,4.373,4.373,0,0,1-1.553.3,3.412,3.412,0,0,1-2.205-1.071,10.264,10.264,0,0,1-1.454-2.037c-.4-.676-.8-1.348-1.2-2.024-.224-.376-.524-.811-.4-1.233A.834.834,0,0,0,605.095,584.154Z" transform="translate(-604.62 -583.91)"/>
    </g>
    <g id="Group_3127" data-name="Group 3127" transform="translate(203.78 153.572)" opacity="0.1">
      <path id="Path_40749" data-name="Path 40749" d="M657.133,490.386h0a2.307,2.307,0,0,0-.3-.808q.138-.056.277-.119a2.307,2.307,0,0,1,.026.926Z" transform="translate(-655.61 -489.46)"/>
      <path id="Path_40750" data-name="Path 40750" d="M655.767,498.963c.125.834-.069,1.919.659,2.308.6.33,1.319-.135,1.909.148s.706.933.989,1.487c.432.89.735,1.533,1.757,1.774,2.466.574,5.449-1.391,6.5-3.511a13.009,13.009,0,0,0,.959-5.449v.8a13.01,13.01,0,0,1-.959,5.449c-1.052,2.12-4.035,4.081-6.5,3.508-1.022-.237-1.319-.884-1.757-1.774-.27-.554-.369-1.2-.989-1.487s-1.319.178-1.909-.145c-.742-.4-.547-1.487-.659-2.308-.26-1.718-2.2-2.733-2.637-4.408a2.592,2.592,0,0,0,.359.023C654.2,496.606,655.553,497.549,655.767,498.963Z" transform="translate(-653.13 -493.415)"/>
    </g>
    <path id="Path_40751" data-name="Path 40751" d="M244.761,785.526a9.985,9.985,0,0,0-2.9-1.025,13.429,13.429,0,0,0,2.169-.488c1.882-.6,2.832-1.394,2.12-1.787s-2.819-.227-4.7.369a7.35,7.35,0,0,0-1.807.8,3.619,3.619,0,0,0-1.549-1.345c-1.671-.92-3.92-1.381-5.021-1.035s-.636,1.375,1.038,2.308a10.133,10.133,0,0,0,2.6.966,15.078,15.078,0,0,0-1.787.33c-2.047.491-3.234,1.236-2.637,1.648s2.726.373,4.777-.119a9.085,9.085,0,0,0,2.149-.762,3.426,3.426,0,0,0,1.576,1.411c1.671.917,3.92,1.381,5.021,1.035S246.432,786.443,244.761,785.526Z" transform="translate(-167.143 -531.25)" fill="#00a4b4"/>
    <path id="Path_40752" data-name="Path 40752" d="M179.881,692.916a6.214,6.214,0,0,0-1.82-.64,8.161,8.161,0,0,0,1.365-.307c1.177-.372,1.774-.874,1.319-1.118a5.113,5.113,0,0,0-2.941.231,4.556,4.556,0,0,0-1.127.5,2.275,2.275,0,0,0-.989-.841,5.008,5.008,0,0,0-3.142-.659c-.689.208-.4.86.659,1.437a6.4,6.4,0,0,0,1.648.6,10.2,10.2,0,0,0-1.124.2c-1.282.307-2.024.775-1.648,1.039a5.252,5.252,0,0,0,2.987-.073,5.674,5.674,0,0,0,1.345-.475,2.146,2.146,0,0,0,.989.88,5.021,5.021,0,0,0,3.145.659C181.236,694.145,180.93,693.492,179.881,692.916Z" transform="translate(-126.824 -470.327)" fill="#00a4b4"/>
    <ellipse id="Ellipse_334" data-name="Ellipse 334" cx="10.645" cy="2.047" rx="10.645" ry="2.047" transform="translate(243.686 267.051)" fill="#00a4b4"/>
    <ellipse id="Ellipse_335" data-name="Ellipse 335" cx="1.24" cy="1.622" rx="1.24" ry="1.622" transform="translate(252.914 266.606)" fill="#3f3d56"/>
    <ellipse id="Ellipse_336" data-name="Ellipse 336" cx="1.24" cy="1.622" rx="1.24" ry="1.622" transform="translate(252.914 264.625)" fill="#3f3d56"/>
    <ellipse id="Ellipse_337" data-name="Ellipse 337" cx="1.24" cy="1.622" rx="1.24" ry="1.622" transform="translate(252.914 262.64)" fill="#3f3d56"/>
    <ellipse id="Ellipse_338" data-name="Ellipse 338" cx="1.24" cy="1.622" rx="1.24" ry="1.622" transform="translate(252.914 260.659)" fill="#3f3d56"/>
    <ellipse id="Ellipse_339" data-name="Ellipse 339" cx="1.24" cy="1.622" rx="1.24" ry="1.622" transform="translate(252.914 258.674)" fill="#3f3d56"/>
    <ellipse id="Ellipse_340" data-name="Ellipse 340" cx="1.24" cy="1.622" rx="1.24" ry="1.622" transform="translate(252.914 256.693)" fill="#3f3d56"/>
    <ellipse id="Ellipse_341" data-name="Ellipse 341" cx="1.24" cy="1.622" rx="1.24" ry="1.622" transform="translate(252.914 254.708)" fill="#3f3d56"/>
    <path id="Path_40753" data-name="Path 40753" d="M798.442,740.495a6.009,6.009,0,0,0,.462-.679l-3.257-.534,3.521.026a5.954,5.954,0,0,0,.115-4.7l-4.727,2.453,4.358-3.2a5.934,5.934,0,1,0-9.8,6.643,6.05,6.05,0,0,0-.679,1.085l4.23,2.2-4.51-1.513a5.984,5.984,0,0,0-.313,1.906,23.569,23.569,0,0,1,1.913,11.695,12.009,12.009,0,0,0,8.689-15.367Z" transform="translate(-539.65 -497.734)" fill="#00a4b4"/>
    <path id="Path_40754" data-name="Path 40754" d="M787.84,770.952a23.566,23.566,0,0,1,1.913,11.695,5.934,5.934,0,0,0,8.692-8.026C799.24,773.613,787.84,770.286,787.84,770.952Z" transform="translate(-539.65 -524.522)" opacity="0.1"/>
    <path id="Path_40097" data-name="Path 40097" d="M2.151,9.5c-.093-.32.133-.519.567-.646a4.761,4.761,0,0,1,2.19-.069l-.563-1.93A5.626,5.626,0,0,0,2.2,7.071C.537,7.557-.316,8.749.108,10.2c.658,2.267,3.666.994,3.953,1.969.11.375-.181.6-.641.73a5.344,5.344,0,0,1-2.43,0l.57,1.951a5.915,5.915,0,0,0,2.377-.188c1.7-.5,2.631-1.685,2.2-3.152C5.418,9.07,2.422,10.416,2.153,9.5ZM6.566,4.02,4.689,5.027,6.6,11.6a2.146,2.146,0,0,0,2.739,1.487,3.316,3.316,0,0,0,1.356-.688l-.485-1.664c-.231.183-1.417.938-1.771-.275L7.59,7.545,9.148,7.09l-.51-1.747L7.08,5.8Zm4.8,1.189-.308-.569-1.771.517,2.094,7.175,2.05-.6L12.007,6.868a1.505,1.505,0,0,1,1.433-.881L12.89,4.1a1.45,1.45,0,0,0-1.528,1.1ZM13.39,3.954l2.058-.6,2.094,7.174-2.058.6L13.39,3.959Zm-.181-.626,1.929-1.043L14.651.624,12.72,1.66l.489,1.673Zm6.478-1.363a2.412,2.412,0,0,0-1.42,1.109L18.012,2.6l-1.8.527L19,12.683l1.923-1.03-.67-2.323a2.418,2.418,0,0,0,1.6.093c1.468-.429,2.46-2,1.7-4.6-.7-2.377-2.434-3.276-3.869-2.857Zm1.157,5.793a1.276,1.276,0,0,1-1.08-.1l-.9-3.04a1.279,1.279,0,0,1,.859-.688c.746-.218,1.506.467,1.82,1.541.321,1.1.052,2.064-.7,2.287Zm9.2-4.738c-.617-2.1-2.117-3.458-4.06-2.891S23.335,2.7,23.943,4.782c.721,2.466,2.477,3.3,4.479,2.721a4.762,4.762,0,0,0,2.116-1.2l-.479-1.64A4.516,4.516,0,0,1,28.182,5.7a1.418,1.418,0,0,1-1.954-.782l4.008-1.17c-.031-.106-.139-.537-.2-.734Zm-4.278.4a1.187,1.187,0,0,1,.7-1.627c.5-.146,1.145.084,1.416,1.01Z" transform="translate(162.943 142.461) rotate(15.009)" fill="#00a4b4"/>
  </g>
</svg>
